<svg xmlns="http://www.w3.org/2000/svg" xmlns:xlink="http://www.w3.org/1999/xlink" width="318" zoomAndPan="magnify" viewBox="0 0 238.5 195.749994" height="261" preserveAspectRatio="xMidYMid meet" version="1.2"><defs><clipPath id="975f0feb20"><path d="M 131 130 L 211 130 L 211 195.421875 L 131 195.421875 Z M 131 130 "/></clipPath><clipPath id="1ca738903a"><path d="M 131 177 L 211 177 L 211 195.421875 L 131 195.421875 Z M 131 177 "/></clipPath><clipPath id="54d07656d5"><path d="M 30 142 L 96 142 L 96 195.421875 L 30 195.421875 Z M 30 142 "/></clipPath><clipPath id="ccba9f53bb"><path d="M 30 177 L 96 177 L 96 195.421875 L 30 195.421875 Z M 30 177 "/></clipPath><filter x="0%" y="0%" width="100%" filterUnits="objectBoundingBox" id="43a8784b3e" height="100%"><feColorMatrix values="0 0 0 0 1 0 0 0 0 1 0 0 0 0 1 0 0 0 1 0" type="matrix" in="SourceGraphic"/></filter><clipPath id="be282191e5"><path d="M 36 0.390625 L 51 0.390625 L 51 13 L 36 13 Z M 36 0.390625 "/></clipPath><clipPath id="9a914c9c6a"><rect x="0" width="93" y="0" height="30"/></clipPath><clipPath id="174c11f633"><path d="M 131 130 L 211 130 L 211 195.421875 L 131 195.421875 Z M 131 130 "/></clipPath><clipPath id="7c148167f3"><path d="M 131 177 L 211 177 L 211 195.421875 L 131 195.421875 Z M 131 177 "/></clipPath><clipPath id="658147f2ab"><path d="M 30 142 L 96 142 L 96 195.421875 L 30 195.421875 Z M 30 142 "/></clipPath><clipPath id="0ec6344718"><path d="M 30 177 L 96 177 L 96 195.421875 L 30 195.421875 Z M 30 177 "/></clipPath><clipPath id="a85aef45f5"><path d="M 36 0.390625 L 51 0.390625 L 51 13 L 36 13 Z M 36 0.390625 "/></clipPath><clipPath id="5f1cb98f68"><rect x="0" width="93" y="0" height="30"/></clipPath></defs><g id="40d257836c"><path style=" stroke:none;fill-rule:nonzero;fill:#000000;fill-opacity:1;" d="M 148.035156 80.617188 C 148.035156 80.617188 141.441406 77.824219 141.441406 70.816406 C 141.441406 63.808594 153.164062 53.378906 163.355469 58.949219 C 171.214844 63.246094 170.140625 73.332031 170.140625 73.332031 Z M 148.035156 80.617188 "/><path style=" stroke:none;fill-rule:nonzero;fill:#000000;fill-opacity:1;" d="M 205.273438 85.167969 C 206.65625 80.617188 216.328125 71.121094 223.628906 74.289062 C 230.933594 77.453125 237.25 85.566406 234.289062 94.074219 C 231.328125 102.578125 221.714844 102.453125 218.695312 102.183594 C 215.339844 97.632812 205.273438 85.167969 205.273438 85.167969 Z M 205.273438 85.167969 "/><path style=" stroke:none;fill-rule:nonzero;fill:#000000;fill-opacity:1;" d="M 144.667969 143.558594 C 139.503906 139.640625 131.035156 132.050781 125.871094 128.132812 C 124.285156 126.929688 122.535156 125.667969 120.546875 125.691406 C 118.058594 125.71875 115.992188 127.839844 115.183594 130.199219 C 114.28125 132.828125 114.605469 135.71875 115.21875 138.429688 C 117.699219 149.324219 124.980469 159.03125 134.734375 164.4375 Z M 144.667969 143.558594 "/><g clip-rule="nonzero" clip-path="url(#975f0feb20)"><path style=" stroke:none;fill-rule:nonzero;fill:#ffffff;fill-opacity:1;" d="M 133.425781 195.171875 C 131.453125 189.039062 130.859375 173.804688 134.414062 161.734375 C 137.703125 150.558594 143.492188 141.160156 151.386719 130.277344 L 199.550781 134.433594 C 206.261719 153.226562 211.785156 175.1875 210.40625 195.171875 C 206.0625 195.367188 133.425781 195.171875 133.425781 195.171875 Z M 133.425781 195.171875 "/></g><g clip-rule="nonzero" clip-path="url(#1ca738903a)"><path style=" stroke:none;fill-rule:nonzero;fill:#241e22;fill-opacity:1;" d="M 210.425781 195.347656 C 210.820312 189.644531 210.628906 183.582031 210.03125 177.675781 C 205.226562 182.242188 198.964844 185.234375 192.597656 187.242188 C 172.578125 193.554688 149.976562 190.84375 131.851562 180.3125 C 131.773438 186.539062 132.457031 192.222656 133.464844 195.347656 C 133.464844 195.347656 206.035156 195.347656 210.425781 195.347656 Z M 210.425781 195.347656 "/></g><path style=" stroke:none;fill-rule:nonzero;fill:#241e22;fill-opacity:1;" d="M 200.277344 136.503906 L 181.605469 132.882812 L 151.386719 130.277344 C 146.691406 136.75 142.742188 142.699219 139.617188 148.808594 C 146.78125 159.578125 158.011719 167.609375 170.554688 170.738281 C 183.15625 173.878906 196.898438 172.035156 208.292969 165.820312 C 206.394531 155.738281 203.5 145.765625 200.277344 136.503906 Z M 200.277344 136.503906 "/><path style=" stroke:none;fill-rule:nonzero;fill:#000000;fill-opacity:1;" d="M 187.523438 144.273438 C 181.960938 147.421875 175.183594 147.976562 168.925781 146.695312 C 162.667969 145.414062 156.871094 142.417969 151.578125 138.832031 C 149.480469 137.410156 147.230469 135.824219 144.695312 135.9375 C 142.113281 136.054688 138.1875 139.105469 139.816406 145.785156 C 140.652344 149.210938 142.988281 154.136719 145.601562 156.5 C 152.503906 162.738281 161.460938 166.65625 170.71875 167.476562 C 179.980469 168.300781 189.484375 166.023438 197.375 161.097656 Z M 187.523438 144.273438 "/><path style=" stroke:none;fill-rule:nonzero;fill:#ffffff;fill-opacity:1;" d="M 130.441406 100.207031 C 128.414062 107.90625 128.667969 125.925781 160.445312 138.191406 C 192.222656 150.457031 217.683594 139.972656 221.832031 124.144531 C 225.976562 108.316406 216.894531 79.628906 186.300781 71.714844 C 155.707031 63.800781 133.207031 89.71875 130.441406 100.207031 Z M 130.441406 100.207031 "/><path style=" stroke:none;fill-rule:nonzero;fill:#000000;fill-opacity:1;" d="M 205.351562 107.054688 C 202.738281 101.457031 199.402344 95.703125 193.234375 96.140625 C 191.339844 96.277344 181.539062 100.140625 184.265625 109.417969 C 186.992188 118.699219 200.691406 123.816406 204.5625 122.070312 C 208.507812 120.289062 206.683594 109.914062 205.351562 107.054688 Z M 205.351562 107.054688 "/><path style=" stroke:none;fill-rule:nonzero;fill:#000000;fill-opacity:1;" d="M 165.742188 99.578125 C 163.8125 102.0625 156.96875 109.890625 147.542969 105.652344 C 138.113281 101.410156 144.921875 94.765625 151.46875 90.179688 C 158.015625 85.59375 167.054688 83.503906 168.230469 89.261719 C 168.882812 92.472656 167.65625 97.113281 165.742188 99.578125 Z M 165.742188 99.578125 "/><path style=" stroke:none;fill-rule:nonzero;fill:#ffffff;fill-opacity:1;" d="M 196.507812 114.050781 C 196.472656 114.050781 196.433594 114.042969 196.402344 114.027344 C 196.261719 113.96875 196.195312 113.808594 196.253906 113.667969 C 196.597656 112.839844 196.566406 111.84375 196.160156 110.9375 C 195.757812 110.027344 195.039062 109.339844 194.195312 109.042969 C 193.351562 108.75 192.359375 108.84375 191.480469 109.308594 C 190.601562 109.769531 189.960938 110.527344 189.722656 111.394531 C 189.679688 111.539062 189.527344 111.625 189.382812 111.585938 C 189.234375 111.542969 189.148438 111.390625 189.191406 111.246094 C 189.472656 110.234375 190.210938 109.347656 191.226562 108.816406 C 192.238281 108.285156 193.386719 108.175781 194.375 108.519531 C 195.363281 108.867188 196.199219 109.664062 196.664062 110.710938 C 197.132812 111.757812 197.167969 112.914062 196.761719 113.878906 C 196.71875 113.984375 196.613281 114.050781 196.507812 114.050781 Z M 196.507812 114.050781 "/><path style=" stroke:none;fill-rule:nonzero;fill:#ffffff;fill-opacity:1;" d="M 159.605469 102.28125 C 159.570312 102.28125 159.539062 102.273438 159.503906 102.261719 C 159.363281 102.203125 159.292969 102.042969 159.351562 101.902344 C 159.679688 101.066406 159.628906 100.074219 159.207031 99.171875 C 158.789062 98.273438 158.058594 97.597656 157.207031 97.316406 C 156.359375 97.039062 155.371094 97.152344 154.5 97.628906 C 153.628906 98.105469 153.003906 98.878906 152.777344 99.746094 C 152.738281 99.894531 152.589844 99.984375 152.441406 99.945312 C 152.292969 99.90625 152.207031 99.757812 152.246094 99.609375 C 152.507812 98.59375 153.230469 97.695312 154.234375 97.144531 C 155.238281 96.59375 156.386719 96.464844 157.378906 96.792969 C 158.375 97.117188 159.222656 97.898438 159.707031 98.9375 C 160.191406 99.976562 160.25 101.132812 159.863281 102.105469 C 159.820312 102.214844 159.714844 102.28125 159.605469 102.28125 Z M 159.605469 102.28125 "/><path style=" stroke:none;fill-rule:nonzero;fill:#000000;fill-opacity:1;" d="M 172.582031 106.597656 C 170.371094 105.921875 166.585938 105.097656 167.941406 108.511719 C 169.464844 112.34375 171.449219 112.40625 174.828125 110.640625 C 177.441406 109.277344 176.328125 107.742188 172.582031 106.597656 Z M 172.582031 106.597656 "/><path style="fill:none;stroke-width:10;stroke-linecap:round;stroke-linejoin:round;stroke:#000000;stroke-opacity:1;stroke-miterlimit:10;" d="M 2919.819216 1992.299454 C 2930.581176 2021.324949 2961.52181 2041.522739 2992.462444 2039.545333 C 3023.332276 2037.638549 3051.511617 2013.768433 3058.591854 1983.683613 " transform="matrix(0.0551712,0,0,0.0553124,2.046851,1.777772)"/><path style="fill:none;stroke-width:10;stroke-linecap:round;stroke-linejoin:round;stroke:#000000;stroke-opacity:1;stroke-miterlimit:10;" d="M 3065.318079 1978.457611 C 3055.972166 2001.268402 3054.626921 2027.680897 3063.477217 2050.774175 C 3072.327513 2073.796831 3091.727361 2093.005918 3115.516956 2099.856217 C 3139.235749 2106.706517 3166.777869 2100.279947 3183.770437 2082.412671 " transform="matrix(0.0551712,0,0,0.0553124,2.046851,1.777772)"/><path style=" stroke:none;fill-rule:nonzero;fill:#fe8f9b;fill-opacity:1;" d="M 189.371094 122.378906 C 188.328125 123.941406 189.484375 127.503906 195.628906 129.339844 C 201.769531 131.179688 205.234375 128.039062 205.621094 126.65625 C 206.507812 123.476562 201.007812 122.785156 198.660156 121.992188 C 196.316406 121.199219 190.667969 120.4375 189.371094 122.378906 Z M 189.371094 122.378906 "/><path style=" stroke:none;fill-rule:nonzero;fill:#fe8f9b;fill-opacity:1;" d="M 152.550781 111.035156 C 152.480469 112.914062 149.457031 115.117188 143.410156 112.988281 C 137.359375 110.859375 136.398438 106.277344 136.894531 104.933594 C 138.039062 101.835938 142.894531 104.515625 145.257812 105.253906 C 147.621094 105.992188 152.640625 108.703125 152.550781 111.035156 Z M 152.550781 111.035156 "/><path style=" stroke:none;fill-rule:nonzero;fill:#000000;fill-opacity:1;" d="M 20.328125 122.363281 C 18.023438 123.117188 6.695312 124.019531 3.351562 115.734375 C -0.00390625 107.425781 3.648438 101.789062 8.1875 98.226562 C 12.726562 94.664062 24.273438 94.664062 28.816406 104.359375 C 24.472656 111.085938 20.328125 122.363281 20.328125 122.363281 Z M 20.328125 122.363281 "/><path style=" stroke:none;fill-rule:nonzero;fill:#000000;fill-opacity:1;" d="M 67.699219 90.710938 C 68.09375 85.566406 72.667969 77.058594 81.515625 78.839844 C 88.800781 80.304688 95.023438 87.496094 92.964844 94.074219 C 90.964844 100.460938 87.042969 102.183594 87.042969 102.183594 Z M 67.699219 90.710938 "/><g clip-rule="nonzero" clip-path="url(#54d07656d5)"><path style=" stroke:none;fill-rule:nonzero;fill:#ffffff;fill-opacity:1;" d="M 36.710938 143.539062 C 35.5625 147.726562 28.121094 171.796875 31.957031 195.238281 L 94.824219 195.238281 C 96.03125 182.082031 91.808594 157.996094 79.34375 142.523438 C 68.488281 145.488281 36.710938 143.539062 36.710938 143.539062 Z M 36.710938 143.539062 "/></g><path style=" stroke:none;fill-rule:nonzero;fill:#241e22;fill-opacity:1;" d="M 79.34375 142.542969 C 73.488281 144.144531 61.542969 144.3125 51.78125 144.128906 C 46.558594 144.917969 41.335938 145.703125 36.113281 146.488281 C 36.035156 146.5 35.957031 146.511719 35.882812 146.523438 C 34.601562 151.195312 32.40625 159.992188 31.398438 170.453125 C 34.195312 175.167969 43.195312 176.429688 48.027344 176.8125 C 52.015625 177.132812 56.058594 176.8125 59.9375 175.828125 C 69.941406 173.28125 78.742188 166.3125 83.535156 157.148438 C 84.371094 155.546875 85.09375 153.871094 85.558594 152.128906 C 83.769531 148.714844 81.703125 145.476562 79.34375 142.542969 Z M 79.34375 142.542969 "/><g clip-rule="nonzero" clip-path="url(#ccba9f53bb)"><path style=" stroke:none;fill-rule:nonzero;fill:#241e22;fill-opacity:1;" d="M 83.933594 191.410156 C 75.78125 194.335938 59.359375 193.769531 51.070312 191.261719 C 43.582031 189 35.25 184.339844 30.925781 177.703125 C 30.738281 183.375 30.988281 189.445312 31.957031 195.367188 C 36.414062 195.378906 86.5 195.367188 94.8125 195.367188 C 95.125 192.058594 95.09375 188.054688 94.667969 183.664062 C 92.386719 186.878906 88.617188 189.730469 83.933594 191.410156 Z M 83.933594 191.410156 "/></g><path style=" stroke:none;fill-rule:nonzero;fill:#ffffff;fill-opacity:1;" d="M 18.355469 133.839844 C 20.90625 145.214844 35.527344 159.953125 70.066406 148.480469 C 104.609375 137.003906 98.492188 118.605469 96.515625 111.679688 C 94.542969 104.757812 75.832031 79.046875 44.605469 90.3125 C 17.1875 100.207031 16.578125 125.925781 18.355469 133.839844 Z M 18.355469 133.839844 "/><path style=" stroke:none;fill-rule:nonzero;fill:#000000;fill-opacity:1;" d="M 36.90625 120.066406 C 39.519531 114.15625 43.757812 109.4375 49.210938 109.4375 C 52.132812 109.4375 60.71875 112.769531 57.992188 122.5625 C 55.265625 132.355469 41.566406 137.757812 37.695312 135.917969 C 33.75 134.035156 35.574219 123.082031 36.90625 120.066406 Z M 36.90625 120.066406 "/><path style=" stroke:none;fill-rule:nonzero;fill:#000000;fill-opacity:1;" d="M 74.804688 113.957031 C 76.265625 116.117188 81.417969 122.859375 88.523438 119.199219 C 95.628906 115.539062 90.496094 109.800781 85.5625 105.84375 C 80.628906 101.886719 73.816406 100.082031 72.929688 105.050781 C 72.4375 107.824219 73.203125 111.582031 74.804688 113.957031 Z M 74.804688 113.957031 "/><path style=" stroke:none;fill-rule:nonzero;fill:#ffffff;fill-opacity:1;" d="M 46.054688 127.699219 C 45.964844 127.699219 45.875 127.652344 45.820312 127.570312 C 44.910156 126.136719 44.640625 124.550781 45.078125 123.21875 C 45.601562 121.636719 47.203125 120.570312 48.722656 120.789062 C 50.269531 121.015625 51.3125 122.359375 52.171875 123.605469 C 52.257812 123.730469 52.226562 123.902344 52.097656 123.988281 C 51.972656 124.078125 51.800781 124.046875 51.714844 123.917969 C 50.890625 122.71875 49.972656 121.527344 48.644531 121.335938 C 47.402344 121.15625 46.035156 122.078125 45.601562 123.390625 C 45.214844 124.566406 45.464844 125.980469 46.289062 127.273438 C 46.371094 127.402344 46.332031 127.574219 46.203125 127.65625 C 46.15625 127.683594 46.105469 127.699219 46.054688 127.699219 Z M 46.054688 127.699219 "/><path style=" stroke:none;fill-rule:nonzero;fill:#ffffff;fill-opacity:1;" d="M 79.820312 115.160156 C 79.667969 115.160156 79.546875 115.039062 79.542969 114.886719 C 79.53125 113.472656 79.605469 111.867188 80.691406 110.734375 C 81.761719 109.617188 83.609375 109.355469 84.898438 110.132812 C 85.992188 110.792969 86.664062 112.085938 86.738281 113.683594 C 86.746094 113.8125 86.660156 113.9375 86.535156 113.972656 C 86.359375 114.015625 86.195312 113.890625 86.1875 113.71875 C 86.121094 112.304688 85.546875 111.171875 84.613281 110.605469 C 83.554688 109.964844 81.972656 110.195312 81.089844 111.117188 C 80.148438 112.101562 80.082031 113.519531 80.09375 114.886719 C 80.097656 115.039062 79.972656 115.160156 79.820312 115.160156 Z M 79.820312 115.160156 "/><path style="fill:none;stroke-width:10;stroke-linecap:round;stroke-linejoin:round;stroke:#000000;stroke-opacity:1;stroke-miterlimit:10;" d="M 1276.283893 2185.167163 C 1290.798378 2201.76325 1293.701275 2227.257663 1284.213758 2247.102345 C 1274.655439 2267.017649 1253.556334 2280.506383 1231.6076 2281.989437 C 1209.588065 2283.40187 1187.356122 2273.161732 1173.337253 2256.141916 " transform="matrix(0.0551712,0,0,0.0553124,2.046851,1.777772)"/><path style="fill:none;stroke-width:10;stroke-linecap:round;stroke-linejoin:round;stroke:#000000;stroke-opacity:1;stroke-miterlimit:10;" d="M 1280.036419 2177.540026 C 1284.921782 2188.133272 1287.25826 2199.715222 1291.718809 2210.520334 C 1296.179358 2221.325445 1303.4012 2231.777448 1314.233962 2236.014747 C 1325.84555 2240.605154 1339.722813 2236.862207 1348.997923 2228.458231 C 1358.202231 2220.124877 1363.300001 2207.836711 1364.928456 2195.477923 " transform="matrix(0.0551712,0,0,0.0553124,2.046851,1.777772)"/><path style=" stroke:none;fill-rule:nonzero;fill:#000000;fill-opacity:1;" d="M 70.363281 118.753906 C 72.1875 118.039062 75.332031 117.089844 74.410156 120.066406 C 73.375 123.402344 72.4375 123.203125 69.105469 122.285156 C 66.59375 121.589844 67.273438 119.964844 70.363281 118.753906 Z M 70.363281 118.753906 "/><path style=" stroke:none;fill-rule:nonzero;fill:#fe8f9b;fill-opacity:1;" d="M 56.765625 133.207031 C 58 134.324219 57.339844 137.433594 51.535156 139.925781 C 45.730469 142.421875 41.902344 140.402344 41.335938 139.328125 C 40.039062 136.863281 45.363281 135.414062 47.566406 134.386719 C 49.769531 133.355469 55.230469 131.824219 56.765625 133.207031 Z M 56.765625 133.207031 "/><path style=" stroke:none;fill-rule:nonzero;fill:#fe8f9b;fill-opacity:1;" d="M 84.59375 123.984375 C 84.800781 125.28125 87.113281 126.375 91.191406 124.03125 C 95.269531 121.683594 95.558594 118.363281 95.097656 117.5 C 94.03125 115.511719 90.839844 118.070312 89.238281 118.921875 C 87.636719 119.777344 84.335938 122.378906 84.59375 123.984375 Z M 84.59375 123.984375 "/><path style=" stroke:none;fill-rule:nonzero;fill:#000000;fill-opacity:1;" d="M 85.457031 156.234375 C 89.96875 152.769531 94.480469 149.304688 98.992188 145.839844 C 100.167969 144.9375 101.601562 143.980469 103.015625 144.421875 C 104.222656 144.796875 104.910156 146.0625 105.324219 147.261719 C 107.214844 152.714844 105.984375 158.949219 102.90625 163.832031 C 99.828125 168.714844 95.085938 172.359375 89.964844 175.003906 Z M 85.457031 156.234375 "/><path style=" stroke:none;fill-rule:nonzero;fill:#000000;fill-opacity:1;" d="M 53.347656 153.503906 C 58.335938 155.421875 63.984375 154.339844 68.96875 152.414062 C 73.953125 150.492188 78.632812 147.761719 83.765625 146.289062 C 85.757812 145.714844 88.199219 145.449219 89.632812 146.953125 C 91.226562 148.621094 90.554688 151.367188 89.550781 153.449219 C 86.636719 159.5 81.714844 164.546875 75.773438 167.652344 C 69.832031 170.761719 62.90625 171.921875 56.269531 170.980469 C 52.96875 170.511719 49.699219 169.519531 46.90625 167.695312 C 44.117188 165.871094 41.824219 163.164062 40.871094 159.964844 Z M 53.347656 153.503906 "/><path style=" stroke:none;fill-rule:nonzero;fill:#000000;fill-opacity:1;" d="M 113.972656 171.140625 C 113.859375 171.140625 113.753906 171.070312 113.714844 170.957031 C 112.539062 167.71875 111.84375 164.308594 111.644531 160.820312 C 111.449219 157.332031 111.753906 153.863281 112.558594 150.515625 C 113.109375 148.203125 113.902344 145.929688 114.671875 143.726562 C 115.539062 141.238281 116.433594 138.664062 116.980469 136.050781 C 117.792969 132.140625 117.839844 128.054688 117.886719 124.105469 C 117.890625 123.628906 117.898438 123.15625 117.90625 122.683594 C 118.121094 107.511719 119.6875 92.265625 122.5625 77.371094 C 122.589844 77.21875 122.734375 77.121094 122.886719 77.152344 C 123.035156 77.179688 123.132812 77.324219 123.101562 77.476562 C 120.234375 92.339844 118.671875 107.554688 118.457031 122.691406 C 118.449219 123.164062 118.445312 123.636719 118.4375 124.109375 C 118.390625 128.089844 118.34375 132.203125 117.519531 136.164062 C 116.96875 138.8125 116.066406 141.402344 115.191406 143.910156 C 114.429688 146.097656 113.640625 148.359375 113.09375 150.644531 C 111.511719 157.242188 111.917969 164.390625 114.234375 170.769531 C 114.285156 170.914062 114.210938 171.070312 114.066406 171.125 C 114.035156 171.132812 114.003906 171.140625 113.972656 171.140625 Z M 113.972656 171.140625 "/><path style=" stroke:none;fill-rule:nonzero;fill:#000000;fill-opacity:1;" d="M 110.664062 181.101562 C 110.578125 181.101562 110.492188 181.058594 110.4375 180.980469 C 108.449219 178.109375 106.816406 174.773438 105.585938 171.0625 C 104.503906 167.796875 103.703125 164.148438 103.210938 160.222656 C 102.464844 154.304688 102.433594 148.246094 102.402344 142.386719 C 102.394531 140.996094 102.386719 139.558594 102.371094 138.148438 C 102.074219 113.476562 98.8125 88.613281 95.660156 64.566406 C 95.636719 64.414062 95.746094 64.273438 95.894531 64.253906 C 96.046875 64.234375 96.1875 64.34375 96.207031 64.492188 C 99.363281 88.554688 102.628906 113.4375 102.921875 138.140625 C 102.941406 139.554688 102.949219 140.992188 102.953125 142.382812 C 102.984375 148.226562 103.015625 154.269531 103.757812 160.152344 C 104.800781 168.441406 107.199219 175.34375 110.890625 180.667969 C 110.980469 180.792969 110.949219 180.964844 110.824219 181.050781 C 110.773438 181.085938 110.71875 181.101562 110.664062 181.101562 Z M 110.664062 181.101562 "/><path style=" stroke:none;fill-rule:nonzero;fill:#fe8f9b;fill-opacity:1;" d="M 130.949219 19.855469 C 130.949219 19.855469 138.128906 12.257812 148.121094 16.386719 C 159.277344 20.992188 164.003906 38.570312 156.175781 49.953125 C 148.347656 61.335938 126.5 78.640625 121.980469 78.597656 C 117.457031 78.554688 95.289062 52.585938 95.777344 40.515625 C 96.265625 28.449219 101.765625 14.011719 114.273438 11.984375 C 126.785156 9.957031 130.949219 19.855469 130.949219 19.855469 Z M 130.949219 19.855469 "/><path style=" stroke:none;fill-rule:nonzero;fill:#fe6676;fill-opacity:1;" d="M 148.121094 16.386719 C 144.675781 14.960938 141.5625 14.933594 138.964844 15.507812 C 139.730469 15.632812 140.523438 15.820312 141.34375 16.082031 C 151.910156 19.425781 158.199219 32.957031 149.808594 44.511719 C 143.011719 53.878906 126 68.140625 121.847656 68.285156 C 118.101562 68.417969 99.648438 51.757812 95.773438 41.195312 C 96.074219 52.640625 114.550781 75.007812 120.765625 78.210938 C 119.613281 79.773438 118.546875 81.394531 117.570312 83.070312 C 117.457031 83.269531 117.679688 83.488281 117.871094 83.371094 C 118.140625 83.207031 118.394531 83.027344 118.636719 82.832031 C 118.746094 82.746094 118.902344 82.777344 118.96875 82.898438 L 119.4375 83.785156 C 119.507812 83.917969 119.6875 83.941406 119.789062 83.832031 L 120.980469 82.574219 C 121.074219 82.472656 121.238281 82.484375 121.316406 82.59375 C 121.574219 82.949219 121.871094 83.273438 122.195312 83.566406 C 122.304688 83.664062 122.472656 83.628906 122.535156 83.5 C 122.78125 83.019531 123.113281 82.726562 123.355469 82.246094 C 123.417969 82.121094 123.578125 82.085938 123.6875 82.175781 C 124.269531 82.640625 124.917969 83.027344 125.605469 83.316406 C 125.785156 83.394531 125.96875 83.214844 125.894531 83.035156 L 123.90625 78.078125 C 130.871094 75.121094 149.160156 60.15625 156.175781 49.953125 C 164.003906 38.570312 159.277344 20.992188 148.121094 16.386719 Z M 148.121094 16.386719 "/><path style=" stroke:none;fill-rule:nonzero;fill:#fe8f9b;fill-opacity:1;" d="M 93.363281 8.40625 C 93.363281 8.40625 99.195312 0.125 110.332031 2.074219 C 122.769531 4.25 129.332031 21.941406 123.609375 33.8125 C 117.882812 45.683594 99.925781 65.386719 95.261719 66.175781 C 90.59375 66.96875 64.714844 46.921875 59.804688 33.085938 C 53.585938 15.578125 63.503906 6.230469 73.867188 3.707031 C 86.632812 0.597656 93.363281 8.40625 93.363281 8.40625 Z M 93.363281 8.40625 "/><g mask="url(#d428a79f92)" transform="matrix(1,0,0,1,60,4)"><g clip-path="url(#9a914c9c6a)"><path style=" stroke:none;fill-rule:nonzero;fill:#ffffff;fill-opacity:1;" d="M 1.070312 16.589844 C 0.933594 18.171875 1.226562 20.078125 2.65625 20.761719 C 3.914062 21.363281 5.386719 20.578125 6.339844 19.554688 C 8.167969 17.585938 10.554688 11.527344 10.464844 9.082031 C 10.40625 7.476562 9.582031 4.949219 7.554688 5.3125 C 3.660156 6.007812 1.34375 13.351562 1.070312 16.589844 Z M 1.070312 16.589844 "/><path style=" stroke:none;fill-rule:nonzero;fill:#ffffff;fill-opacity:1;" d="M 10.460938 18.964844 C 9.238281 19.015625 8.160156 20.148438 8.167969 21.375 C 8.179688 22.601562 9.273438 23.714844 10.5 23.746094 C 11.722656 23.773438 12.871094 22.710938 12.9375 21.488281 C 13.003906 20.261719 11.980469 19.078125 10.761719 18.972656 "/><path style=" stroke:none;fill-rule:nonzero;fill:#ffffff;fill-opacity:1;" d="M 16.253906 26.71875 C 16.253906 26.953125 16.207031 27.179688 16.117188 27.394531 C 16.027344 27.613281 15.902344 27.804688 15.734375 27.96875 C 15.570312 28.136719 15.378906 28.265625 15.164062 28.355469 C 14.945312 28.445312 14.722656 28.488281 14.488281 28.488281 C 14.253906 28.488281 14.027344 28.445312 13.8125 28.355469 C 13.59375 28.265625 13.402344 28.136719 13.238281 27.96875 C 13.074219 27.804688 12.945312 27.613281 12.855469 27.394531 C 12.765625 27.179688 12.722656 26.953125 12.722656 26.71875 C 12.722656 26.484375 12.765625 26.257812 12.855469 26.042969 C 12.945312 25.824219 13.074219 25.632812 13.238281 25.46875 C 13.402344 25.300781 13.59375 25.171875 13.8125 25.082031 C 14.027344 24.992188 14.253906 24.949219 14.488281 24.949219 C 14.722656 24.949219 14.945312 24.992188 15.164062 25.082031 C 15.378906 25.171875 15.570312 25.300781 15.734375 25.46875 C 15.902344 25.632812 16.027344 25.824219 16.117188 26.042969 C 16.207031 26.257812 16.253906 26.484375 16.253906 26.71875 Z M 16.253906 26.71875 "/><g clip-rule="nonzero" clip-path="url(#be282191e5)"><path style=" stroke:none;fill-rule:nonzero;fill:#ffffff;fill-opacity:1;" d="M 38.246094 10.675781 C 39.382812 11.808594 41.132812 12.292969 42.796875 12.144531 C 44.457031 12 46.027344 11.265625 47.339844 10.277344 C 50.003906 8.269531 51.59375 4.210938 48.394531 1.527344 C 43.835938 -2.289062 32.839844 5.296875 38.246094 10.675781 Z M 38.246094 10.675781 "/></g><path style=" stroke:none;fill-rule:nonzero;fill:#ffffff;fill-opacity:1;" d="M 77.242188 22.234375 C 78.175781 22.992188 79.292969 23.484375 80.414062 23.921875 C 81.824219 24.46875 83.394531 24.945312 84.816406 24.4375 C 89.640625 22.710938 87.082031 15.066406 83.085938 14 C 78.378906 12.742188 72.382812 18.285156 77.242188 22.234375 Z M 77.242188 22.234375 "/><path style=" stroke:none;fill-rule:nonzero;fill:#ffffff;fill-opacity:1;" d="M 88.386719 26.121094 C 87.921875 27.058594 88.253906 28.40625 89.285156 28.835938 C 90.28125 29.25 91.550781 28.546875 91.796875 27.492188 C 92.011719 26.566406 91.480469 25.71875 90.679688 25.285156 C 89.828125 24.824219 88.78125 25.320312 88.386719 26.121094 Z M 88.386719 26.121094 "/></g><mask id="d428a79f92"><g filter="url(#43a8784b3e)"><rect x="0" width="238.5" y="0" height="195.749994" style="fill:#000000;fill-opacity:0.9;stroke:none;"/></g></mask></g><path style=" stroke:none;fill-rule:nonzero;fill:#fe6676;fill-opacity:1;" d="M 110.332031 2.074219 C 110.332031 2.074219 110.332031 2.074219 110.328125 2.074219 C 110.222656 2.054688 110.117188 2.039062 110.011719 2.023438 C 109.984375 2.015625 109.953125 2.011719 109.921875 2.007812 C 109.839844 1.996094 109.757812 1.984375 109.679688 1.972656 C 109.652344 1.96875 109.625 1.964844 109.597656 1.960938 C 109.492188 1.945312 109.390625 1.933594 109.285156 1.917969 C 109.265625 1.917969 109.25 1.914062 109.230469 1.914062 C 109.144531 1.902344 109.058594 1.894531 108.972656 1.882812 C 108.941406 1.878906 108.910156 1.878906 108.882812 1.875 C 108.796875 1.867188 108.710938 1.859375 108.625 1.851562 C 108.609375 1.847656 108.589844 1.847656 108.574219 1.84375 C 108.472656 1.835938 108.371094 1.828125 108.269531 1.824219 C 108.246094 1.820312 108.21875 1.820312 108.195312 1.816406 C 108.117188 1.8125 108.039062 1.808594 107.960938 1.804688 C 107.933594 1.800781 107.90625 1.800781 107.878906 1.800781 C 107.777344 1.792969 107.679688 1.789062 107.578125 1.789062 C 107.480469 1.785156 107.382812 1.78125 107.285156 1.78125 C 107.253906 1.78125 107.226562 1.78125 107.195312 1.777344 C 107.066406 1.777344 106.9375 1.777344 106.8125 1.777344 C 106.800781 1.777344 106.792969 1.777344 106.78125 1.78125 C 106.65625 1.78125 106.527344 1.785156 106.402344 1.789062 C 106.382812 1.789062 106.363281 1.789062 106.34375 1.789062 C 106.316406 1.789062 106.289062 1.792969 106.261719 1.792969 C 106.21875 1.792969 106.175781 1.796875 106.132812 1.796875 C 106.027344 1.804688 105.921875 1.808594 105.816406 1.816406 C 105.808594 1.816406 105.800781 1.816406 105.792969 1.816406 C 105.582031 1.832031 105.375 1.851562 105.171875 1.871094 C 105.160156 1.871094 105.152344 1.875 105.140625 1.875 C 104.9375 1.894531 104.738281 1.921875 104.542969 1.949219 C 104.53125 1.949219 104.515625 1.953125 104.503906 1.953125 C 104.308594 1.980469 104.117188 2.011719 103.925781 2.046875 C 103.914062 2.046875 103.902344 2.050781 103.886719 2.054688 C 103.792969 2.070312 103.703125 2.085938 103.609375 2.105469 C 114.332031 4.199219 118.550781 17.863281 114.957031 28.039062 C 111.03125 39.160156 97.953125 54.273438 88.269531 54.273438 C 82.394531 54.273438 74.984375 51.621094 68.613281 46.335938 C 68.621094 46.347656 68.632812 46.359375 68.640625 46.367188 C 68.734375 46.472656 68.832031 46.578125 68.925781 46.679688 C 68.933594 46.691406 68.941406 46.699219 68.949219 46.707031 C 77.742188 56.347656 89.832031 65.160156 94.265625 66.113281 L 93.703125 70.003906 C 93.667969 70.234375 93.96875 70.351562 94.097656 70.160156 C 94.300781 69.863281 94.488281 69.554688 94.65625 69.242188 C 94.746094 69.074219 94.988281 69.089844 95.054688 69.265625 L 95.617188 70.746094 C 95.6875 70.925781 95.941406 70.933594 96.023438 70.757812 C 96.285156 70.171875 96.503906 69.566406 96.671875 68.945312 C 96.710938 68.796875 96.886719 68.734375 97.011719 68.824219 C 97.476562 69.15625 97.96875 69.449219 98.480469 69.699219 C 98.648438 69.78125 98.835938 69.628906 98.789062 69.449219 C 98.71875 69.171875 98.617188 68.902344 98.484375 68.644531 C 98.402344 68.484375 98.539062 68.300781 98.714844 68.328125 C 98.902344 68.363281 99.039062 68.15625 98.9375 67.992188 L 97.183594 65.304688 C 103.628906 61.257812 118.480469 44.429688 123.601562 33.828125 C 123.601562 33.824219 123.605469 33.816406 123.609375 33.8125 C 125.039062 30.84375 125.703125 27.515625 125.699219 24.152344 C 125.683594 14.066406 119.660156 3.707031 110.332031 2.074219 Z M 110.332031 2.074219 "/><path style=" stroke:none;fill-rule:nonzero;fill:#000000;fill-opacity:1;" d="M 148.035156 80.617188 C 148.035156 80.617188 141.441406 77.824219 141.441406 70.816406 C 141.441406 63.808594 153.164062 53.378906 163.355469 58.949219 C 171.214844 63.246094 170.140625 73.332031 170.140625 73.332031 Z M 148.035156 80.617188 "/><path style=" stroke:none;fill-rule:nonzero;fill:#000000;fill-opacity:1;" d="M 205.273438 85.167969 C 206.65625 80.617188 216.328125 71.121094 223.628906 74.289062 C 230.933594 77.453125 237.25 85.566406 234.289062 94.074219 C 231.328125 102.578125 221.714844 102.453125 218.695312 102.183594 C 215.339844 97.632812 205.273438 85.167969 205.273438 85.167969 Z M 205.273438 85.167969 "/><path style=" stroke:none;fill-rule:nonzero;fill:#000000;fill-opacity:1;" d="M 144.667969 143.558594 C 139.503906 139.640625 131.035156 132.050781 125.871094 128.132812 C 124.285156 126.929688 122.535156 125.667969 120.546875 125.691406 C 118.058594 125.71875 115.992188 127.839844 115.183594 130.199219 C 114.28125 132.828125 114.605469 135.71875 115.21875 138.429688 C 117.699219 149.324219 124.980469 159.03125 134.734375 164.4375 Z M 144.667969 143.558594 "/><g clip-rule="nonzero" clip-path="url(#174c11f633)"><path style=" stroke:none;fill-rule:nonzero;fill:#ffffff;fill-opacity:1;" d="M 133.425781 195.171875 C 131.453125 189.039062 130.859375 173.804688 134.414062 161.734375 C 137.703125 150.558594 143.492188 141.160156 151.386719 130.277344 L 199.550781 134.433594 C 206.261719 153.226562 211.785156 175.1875 210.40625 195.171875 C 206.0625 195.367188 133.425781 195.171875 133.425781 195.171875 Z M 133.425781 195.171875 "/></g><g clip-rule="nonzero" clip-path="url(#7c148167f3)"><path style=" stroke:none;fill-rule:nonzero;fill:#241e22;fill-opacity:1;" d="M 210.425781 195.347656 C 210.820312 189.644531 210.628906 183.582031 210.03125 177.675781 C 205.226562 182.242188 198.964844 185.234375 192.597656 187.242188 C 172.578125 193.554688 149.976562 190.84375 131.851562 180.3125 C 131.773438 186.539062 132.457031 192.222656 133.464844 195.347656 C 133.464844 195.347656 206.035156 195.347656 210.425781 195.347656 Z M 210.425781 195.347656 "/></g><path style=" stroke:none;fill-rule:nonzero;fill:#241e22;fill-opacity:1;" d="M 200.277344 136.503906 L 181.605469 132.882812 L 151.386719 130.277344 C 146.691406 136.75 142.742188 142.699219 139.617188 148.808594 C 146.78125 159.578125 158.011719 167.609375 170.554688 170.738281 C 183.15625 173.878906 196.898438 172.035156 208.292969 165.820312 C 206.394531 155.738281 203.5 145.765625 200.277344 136.503906 Z M 200.277344 136.503906 "/><path style=" stroke:none;fill-rule:nonzero;fill:#000000;fill-opacity:1;" d="M 187.523438 144.273438 C 181.960938 147.421875 175.183594 147.976562 168.925781 146.695312 C 162.667969 145.414062 156.871094 142.417969 151.578125 138.832031 C 149.480469 137.410156 147.230469 135.824219 144.695312 135.9375 C 142.113281 136.054688 138.1875 139.105469 139.816406 145.785156 C 140.652344 149.210938 142.988281 154.136719 145.601562 156.5 C 152.503906 162.738281 161.460938 166.65625 170.71875 167.476562 C 179.980469 168.300781 189.484375 166.023438 197.375 161.097656 Z M 187.523438 144.273438 "/><path style=" stroke:none;fill-rule:nonzero;fill:#ffffff;fill-opacity:1;" d="M 130.441406 100.207031 C 128.414062 107.90625 128.667969 125.925781 160.445312 138.191406 C 192.222656 150.457031 217.683594 139.972656 221.832031 124.144531 C 225.976562 108.316406 216.894531 79.628906 186.300781 71.714844 C 155.707031 63.800781 133.207031 89.71875 130.441406 100.207031 Z M 130.441406 100.207031 "/><path style=" stroke:none;fill-rule:nonzero;fill:#000000;fill-opacity:1;" d="M 205.351562 107.054688 C 202.738281 101.457031 199.402344 95.703125 193.234375 96.140625 C 191.339844 96.277344 181.539062 100.140625 184.265625 109.417969 C 186.992188 118.699219 200.691406 123.816406 204.5625 122.070312 C 208.507812 120.289062 206.683594 109.914062 205.351562 107.054688 Z M 205.351562 107.054688 "/><path style=" stroke:none;fill-rule:nonzero;fill:#000000;fill-opacity:1;" d="M 165.742188 99.578125 C 163.8125 102.0625 156.96875 109.890625 147.542969 105.652344 C 138.113281 101.410156 144.921875 94.765625 151.46875 90.179688 C 158.015625 85.59375 167.054688 83.503906 168.230469 89.261719 C 168.882812 92.472656 167.65625 97.113281 165.742188 99.578125 Z M 165.742188 99.578125 "/><path style=" stroke:none;fill-rule:nonzero;fill:#ffffff;fill-opacity:1;" d="M 196.507812 114.050781 C 196.472656 114.050781 196.433594 114.042969 196.402344 114.027344 C 196.261719 113.96875 196.195312 113.808594 196.253906 113.667969 C 196.597656 112.839844 196.566406 111.84375 196.160156 110.9375 C 195.757812 110.027344 195.039062 109.339844 194.195312 109.042969 C 193.351562 108.75 192.359375 108.84375 191.480469 109.308594 C 190.601562 109.769531 189.960938 110.527344 189.722656 111.394531 C 189.679688 111.539062 189.527344 111.625 189.382812 111.585938 C 189.234375 111.542969 189.148438 111.390625 189.191406 111.246094 C 189.472656 110.234375 190.210938 109.347656 191.226562 108.816406 C 192.238281 108.285156 193.386719 108.175781 194.375 108.519531 C 195.363281 108.867188 196.199219 109.664062 196.664062 110.710938 C 197.132812 111.757812 197.167969 112.914062 196.761719 113.878906 C 196.71875 113.984375 196.613281 114.050781 196.507812 114.050781 Z M 196.507812 114.050781 "/><path style=" stroke:none;fill-rule:nonzero;fill:#ffffff;fill-opacity:1;" d="M 159.605469 102.28125 C 159.570312 102.28125 159.539062 102.273438 159.503906 102.261719 C 159.363281 102.203125 159.292969 102.042969 159.351562 101.902344 C 159.679688 101.066406 159.628906 100.074219 159.207031 99.171875 C 158.789062 98.273438 158.058594 97.597656 157.207031 97.316406 C 156.359375 97.039062 155.371094 97.152344 154.5 97.628906 C 153.628906 98.105469 153.003906 98.878906 152.777344 99.746094 C 152.738281 99.894531 152.589844 99.984375 152.441406 99.945312 C 152.292969 99.90625 152.207031 99.757812 152.246094 99.609375 C 152.507812 98.59375 153.230469 97.695312 154.234375 97.144531 C 155.238281 96.59375 156.386719 96.464844 157.378906 96.792969 C 158.375 97.117188 159.222656 97.898438 159.707031 98.9375 C 160.191406 99.976562 160.25 101.132812 159.863281 102.105469 C 159.820312 102.214844 159.714844 102.28125 159.605469 102.28125 Z M 159.605469 102.28125 "/><path style=" stroke:none;fill-rule:nonzero;fill:#000000;fill-opacity:1;" d="M 172.582031 106.597656 C 170.371094 105.921875 166.585938 105.097656 167.941406 108.511719 C 169.464844 112.34375 171.449219 112.40625 174.828125 110.640625 C 177.441406 109.277344 176.328125 107.742188 172.582031 106.597656 Z M 172.582031 106.597656 "/><path style="fill:none;stroke-width:10;stroke-linecap:round;stroke-linejoin:round;stroke:#000000;stroke-opacity:1;stroke-miterlimit:10;" d="M 2919.819216 1992.299454 C 2930.581176 2021.324949 2961.52181 2041.522739 2992.462444 2039.545333 C 3023.332276 2037.638549 3051.511617 2013.768433 3058.591854 1983.683613 " transform="matrix(0.0551712,0,0,0.0553124,2.046851,1.777772)"/><path style="fill:none;stroke-width:10;stroke-linecap:round;stroke-linejoin:round;stroke:#000000;stroke-opacity:1;stroke-miterlimit:10;" d="M 3065.318079 1978.457611 C 3055.972166 2001.268402 3054.626921 2027.680897 3063.477217 2050.774175 C 3072.327513 2073.796831 3091.727361 2093.005918 3115.516956 2099.856217 C 3139.235749 2106.706517 3166.777869 2100.279947 3183.770437 2082.412671 " transform="matrix(0.0551712,0,0,0.0553124,2.046851,1.777772)"/><path style=" stroke:none;fill-rule:nonzero;fill:#fe8f9b;fill-opacity:1;" d="M 189.371094 122.378906 C 188.328125 123.941406 189.484375 127.503906 195.628906 129.339844 C 201.769531 131.179688 205.234375 128.039062 205.621094 126.65625 C 206.507812 123.476562 201.007812 122.785156 198.660156 121.992188 C 196.316406 121.199219 190.667969 120.4375 189.371094 122.378906 Z M 189.371094 122.378906 "/><path style=" stroke:none;fill-rule:nonzero;fill:#fe8f9b;fill-opacity:1;" d="M 152.550781 111.035156 C 152.480469 112.914062 149.457031 115.117188 143.410156 112.988281 C 137.359375 110.859375 136.398438 106.277344 136.894531 104.933594 C 138.039062 101.835938 142.894531 104.515625 145.257812 105.253906 C 147.621094 105.992188 152.640625 108.703125 152.550781 111.035156 Z M 152.550781 111.035156 "/><path style=" stroke:none;fill-rule:nonzero;fill:#000000;fill-opacity:1;" d="M 20.328125 122.363281 C 18.023438 123.117188 6.695312 124.019531 3.351562 115.734375 C -0.00390625 107.425781 3.648438 101.789062 8.1875 98.226562 C 12.726562 94.664062 24.273438 94.664062 28.816406 104.359375 C 24.472656 111.085938 20.328125 122.363281 20.328125 122.363281 Z M 20.328125 122.363281 "/><path style=" stroke:none;fill-rule:nonzero;fill:#000000;fill-opacity:1;" d="M 67.699219 90.710938 C 68.09375 85.566406 72.667969 77.058594 81.515625 78.839844 C 88.800781 80.304688 95.023438 87.496094 92.964844 94.074219 C 90.964844 100.460938 87.042969 102.183594 87.042969 102.183594 Z M 67.699219 90.710938 "/><g clip-rule="nonzero" clip-path="url(#658147f2ab)"><path style=" stroke:none;fill-rule:nonzero;fill:#ffffff;fill-opacity:1;" d="M 36.710938 143.539062 C 35.5625 147.726562 28.121094 171.796875 31.957031 195.238281 L 94.824219 195.238281 C 96.03125 182.082031 91.808594 157.996094 79.34375 142.523438 C 68.488281 145.488281 36.710938 143.539062 36.710938 143.539062 Z M 36.710938 143.539062 "/></g><path style=" stroke:none;fill-rule:nonzero;fill:#241e22;fill-opacity:1;" d="M 79.34375 142.542969 C 73.488281 144.144531 61.542969 144.3125 51.78125 144.128906 C 46.558594 144.917969 41.335938 145.703125 36.113281 146.488281 C 36.035156 146.5 35.957031 146.511719 35.882812 146.523438 C 34.601562 151.195312 32.40625 159.992188 31.398438 170.453125 C 34.195312 175.167969 43.195312 176.429688 48.027344 176.8125 C 52.015625 177.132812 56.058594 176.8125 59.9375 175.828125 C 69.941406 173.28125 78.742188 166.3125 83.535156 157.148438 C 84.371094 155.546875 85.09375 153.871094 85.558594 152.128906 C 83.769531 148.714844 81.703125 145.476562 79.34375 142.542969 Z M 79.34375 142.542969 "/><g clip-rule="nonzero" clip-path="url(#0ec6344718)"><path style=" stroke:none;fill-rule:nonzero;fill:#241e22;fill-opacity:1;" d="M 83.933594 191.410156 C 75.78125 194.335938 59.359375 193.769531 51.070312 191.261719 C 43.582031 189 35.25 184.339844 30.925781 177.703125 C 30.738281 183.375 30.988281 189.445312 31.957031 195.367188 C 36.414062 195.378906 86.5 195.367188 94.8125 195.367188 C 95.125 192.058594 95.09375 188.054688 94.667969 183.664062 C 92.386719 186.878906 88.617188 189.730469 83.933594 191.410156 Z M 83.933594 191.410156 "/></g><path style=" stroke:none;fill-rule:nonzero;fill:#ffffff;fill-opacity:1;" d="M 18.355469 133.839844 C 20.90625 145.214844 35.527344 159.953125 70.066406 148.480469 C 104.609375 137.003906 98.492188 118.605469 96.515625 111.679688 C 94.542969 104.757812 75.832031 79.046875 44.605469 90.3125 C 17.1875 100.207031 16.578125 125.925781 18.355469 133.839844 Z M 18.355469 133.839844 "/><path style=" stroke:none;fill-rule:nonzero;fill:#000000;fill-opacity:1;" d="M 36.90625 120.066406 C 39.519531 114.15625 43.757812 109.4375 49.210938 109.4375 C 52.132812 109.4375 60.71875 112.769531 57.992188 122.5625 C 55.265625 132.355469 41.566406 137.757812 37.695312 135.917969 C 33.75 134.035156 35.574219 123.082031 36.90625 120.066406 Z M 36.90625 120.066406 "/><path style=" stroke:none;fill-rule:nonzero;fill:#000000;fill-opacity:1;" d="M 74.804688 113.957031 C 76.265625 116.117188 81.417969 122.859375 88.523438 119.199219 C 95.628906 115.539062 90.496094 109.800781 85.5625 105.84375 C 80.628906 101.886719 73.816406 100.082031 72.929688 105.050781 C 72.4375 107.824219 73.203125 111.582031 74.804688 113.957031 Z M 74.804688 113.957031 "/><path style=" stroke:none;fill-rule:nonzero;fill:#ffffff;fill-opacity:1;" d="M 46.054688 127.699219 C 45.964844 127.699219 45.875 127.652344 45.820312 127.570312 C 44.910156 126.136719 44.640625 124.550781 45.078125 123.21875 C 45.601562 121.636719 47.203125 120.570312 48.722656 120.789062 C 50.269531 121.015625 51.3125 122.359375 52.171875 123.605469 C 52.257812 123.730469 52.226562 123.902344 52.097656 123.988281 C 51.972656 124.078125 51.800781 124.046875 51.714844 123.917969 C 50.890625 122.71875 49.972656 121.527344 48.644531 121.335938 C 47.402344 121.15625 46.035156 122.078125 45.601562 123.390625 C 45.214844 124.566406 45.464844 125.980469 46.289062 127.273438 C 46.371094 127.402344 46.332031 127.574219 46.203125 127.65625 C 46.15625 127.683594 46.105469 127.699219 46.054688 127.699219 Z M 46.054688 127.699219 "/><path style=" stroke:none;fill-rule:nonzero;fill:#ffffff;fill-opacity:1;" d="M 79.820312 115.160156 C 79.667969 115.160156 79.546875 115.039062 79.542969 114.886719 C 79.53125 113.472656 79.605469 111.867188 80.691406 110.734375 C 81.761719 109.617188 83.609375 109.355469 84.898438 110.132812 C 85.992188 110.792969 86.664062 112.085938 86.738281 113.683594 C 86.746094 113.8125 86.660156 113.9375 86.535156 113.972656 C 86.359375 114.015625 86.195312 113.890625 86.1875 113.71875 C 86.121094 112.304688 85.546875 111.171875 84.613281 110.605469 C 83.554688 109.964844 81.972656 110.195312 81.089844 111.117188 C 80.148438 112.101562 80.082031 113.519531 80.09375 114.886719 C 80.097656 115.039062 79.972656 115.160156 79.820312 115.160156 Z M 79.820312 115.160156 "/><path style="fill:none;stroke-width:10;stroke-linecap:round;stroke-linejoin:round;stroke:#000000;stroke-opacity:1;stroke-miterlimit:10;" d="M 1276.283893 2185.167163 C 1290.798378 2201.76325 1293.701275 2227.257663 1284.213758 2247.102345 C 1274.655439 2267.017649 1253.556334 2280.506383 1231.6076 2281.989437 C 1209.588065 2283.40187 1187.356122 2273.161732 1173.337253 2256.141916 " transform="matrix(0.0551712,0,0,0.0553124,2.046851,1.777772)"/><path style="fill:none;stroke-width:10;stroke-linecap:round;stroke-linejoin:round;stroke:#000000;stroke-opacity:1;stroke-miterlimit:10;" d="M 1280.036419 2177.540026 C 1284.921782 2188.133272 1287.25826 2199.715222 1291.718809 2210.520334 C 1296.179358 2221.325445 1303.4012 2231.777448 1314.233962 2236.014747 C 1325.84555 2240.605154 1339.722813 2236.862207 1348.997923 2228.458231 C 1358.202231 2220.124877 1363.300001 2207.836711 1364.928456 2195.477923 " transform="matrix(0.0551712,0,0,0.0553124,2.046851,1.777772)"/><path style=" stroke:none;fill-rule:nonzero;fill:#000000;fill-opacity:1;" d="M 70.363281 118.753906 C 72.1875 118.039062 75.332031 117.089844 74.410156 120.066406 C 73.375 123.402344 72.4375 123.203125 69.105469 122.285156 C 66.59375 121.589844 67.273438 119.964844 70.363281 118.753906 Z M 70.363281 118.753906 "/><path style=" stroke:none;fill-rule:nonzero;fill:#fe8f9b;fill-opacity:1;" d="M 56.765625 133.207031 C 58 134.324219 57.339844 137.433594 51.535156 139.925781 C 45.730469 142.421875 41.902344 140.402344 41.335938 139.328125 C 40.039062 136.863281 45.363281 135.414062 47.566406 134.386719 C 49.769531 133.355469 55.230469 131.824219 56.765625 133.207031 Z M 56.765625 133.207031 "/><path style=" stroke:none;fill-rule:nonzero;fill:#fe8f9b;fill-opacity:1;" d="M 84.59375 123.984375 C 84.800781 125.28125 87.113281 126.375 91.191406 124.03125 C 95.269531 121.683594 95.558594 118.363281 95.097656 117.5 C 94.03125 115.511719 90.839844 118.070312 89.238281 118.921875 C 87.636719 119.777344 84.335938 122.378906 84.59375 123.984375 Z M 84.59375 123.984375 "/><path style=" stroke:none;fill-rule:nonzero;fill:#000000;fill-opacity:1;" d="M 85.457031 156.234375 C 89.96875 152.769531 94.480469 149.304688 98.992188 145.839844 C 100.167969 144.9375 101.601562 143.980469 103.015625 144.421875 C 104.222656 144.796875 104.910156 146.0625 105.324219 147.261719 C 107.214844 152.714844 105.984375 158.949219 102.90625 163.832031 C 99.828125 168.714844 95.085938 172.359375 89.964844 175.003906 Z M 85.457031 156.234375 "/><path style=" stroke:none;fill-rule:nonzero;fill:#000000;fill-opacity:1;" d="M 53.347656 153.503906 C 58.335938 155.421875 63.984375 154.339844 68.96875 152.414062 C 73.953125 150.492188 78.632812 147.761719 83.765625 146.289062 C 85.757812 145.714844 88.199219 145.449219 89.632812 146.953125 C 91.226562 148.621094 90.554688 151.367188 89.550781 153.449219 C 86.636719 159.5 81.714844 164.546875 75.773438 167.652344 C 69.832031 170.761719 62.90625 171.921875 56.269531 170.980469 C 52.96875 170.511719 49.699219 169.519531 46.90625 167.695312 C 44.117188 165.871094 41.824219 163.164062 40.871094 159.964844 Z M 53.347656 153.503906 "/><path style=" stroke:none;fill-rule:nonzero;fill:#000000;fill-opacity:1;" d="M 113.972656 171.140625 C 113.859375 171.140625 113.753906 171.070312 113.714844 170.957031 C 112.539062 167.71875 111.84375 164.308594 111.644531 160.820312 C 111.449219 157.332031 111.753906 153.863281 112.558594 150.515625 C 113.109375 148.203125 113.902344 145.929688 114.671875 143.726562 C 115.539062 141.238281 116.433594 138.664062 116.980469 136.050781 C 117.792969 132.140625 117.839844 128.054688 117.886719 124.105469 C 117.890625 123.628906 117.898438 123.15625 117.90625 122.683594 C 118.121094 107.511719 119.6875 92.265625 122.5625 77.371094 C 122.589844 77.21875 122.734375 77.121094 122.886719 77.152344 C 123.035156 77.179688 123.132812 77.324219 123.101562 77.476562 C 120.234375 92.339844 118.671875 107.554688 118.457031 122.691406 C 118.449219 123.164062 118.445312 123.636719 118.4375 124.109375 C 118.390625 128.089844 118.34375 132.203125 117.519531 136.164062 C 116.96875 138.8125 116.066406 141.402344 115.191406 143.910156 C 114.429688 146.097656 113.640625 148.359375 113.09375 150.644531 C 111.511719 157.242188 111.917969 164.390625 114.234375 170.769531 C 114.285156 170.914062 114.210938 171.070312 114.066406 171.125 C 114.035156 171.132812 114.003906 171.140625 113.972656 171.140625 Z M 113.972656 171.140625 "/><path style=" stroke:none;fill-rule:nonzero;fill:#000000;fill-opacity:1;" d="M 110.664062 181.101562 C 110.578125 181.101562 110.492188 181.058594 110.4375 180.980469 C 108.449219 178.109375 106.816406 174.773438 105.585938 171.0625 C 104.503906 167.796875 103.703125 164.148438 103.210938 160.222656 C 102.464844 154.304688 102.433594 148.246094 102.402344 142.386719 C 102.394531 140.996094 102.386719 139.558594 102.371094 138.148438 C 102.074219 113.476562 98.8125 88.613281 95.660156 64.566406 C 95.636719 64.414062 95.746094 64.273438 95.894531 64.253906 C 96.046875 64.234375 96.1875 64.34375 96.207031 64.492188 C 99.363281 88.554688 102.628906 113.4375 102.921875 138.140625 C 102.941406 139.554688 102.949219 140.992188 102.953125 142.382812 C 102.984375 148.226562 103.015625 154.269531 103.757812 160.152344 C 104.800781 168.441406 107.199219 175.34375 110.890625 180.667969 C 110.980469 180.792969 110.949219 180.964844 110.824219 181.050781 C 110.773438 181.085938 110.71875 181.101562 110.664062 181.101562 Z M 110.664062 181.101562 "/><path style=" stroke:none;fill-rule:nonzero;fill:#fe8f9b;fill-opacity:1;" d="M 130.949219 19.855469 C 130.949219 19.855469 138.128906 12.257812 148.121094 16.386719 C 159.277344 20.992188 164.003906 38.570312 156.175781 49.953125 C 148.347656 61.335938 126.5 78.640625 121.980469 78.597656 C 117.457031 78.554688 95.289062 52.585938 95.777344 40.515625 C 96.265625 28.449219 101.765625 14.011719 114.273438 11.984375 C 126.785156 9.957031 130.949219 19.855469 130.949219 19.855469 Z M 130.949219 19.855469 "/><path style=" stroke:none;fill-rule:nonzero;fill:#fe6676;fill-opacity:1;" d="M 148.121094 16.386719 C 144.675781 14.960938 141.5625 14.933594 138.964844 15.507812 C 139.730469 15.632812 140.523438 15.820312 141.34375 16.082031 C 151.910156 19.425781 158.199219 32.957031 149.808594 44.511719 C 143.011719 53.878906 126 68.140625 121.847656 68.285156 C 118.101562 68.417969 99.648438 51.757812 95.773438 41.195312 C 96.074219 52.640625 114.550781 75.007812 120.765625 78.210938 C 119.613281 79.773438 118.546875 81.394531 117.570312 83.070312 C 117.457031 83.269531 117.679688 83.488281 117.871094 83.371094 C 118.140625 83.207031 118.394531 83.027344 118.636719 82.832031 C 118.746094 82.746094 118.902344 82.777344 118.96875 82.898438 L 119.4375 83.785156 C 119.507812 83.917969 119.6875 83.941406 119.789062 83.832031 L 120.980469 82.574219 C 121.074219 82.472656 121.238281 82.484375 121.316406 82.59375 C 121.574219 82.949219 121.871094 83.273438 122.195312 83.566406 C 122.304688 83.664062 122.472656 83.628906 122.535156 83.5 C 122.78125 83.019531 123.113281 82.726562 123.355469 82.246094 C 123.417969 82.121094 123.578125 82.085938 123.6875 82.175781 C 124.269531 82.640625 124.917969 83.027344 125.605469 83.316406 C 125.785156 83.394531 125.96875 83.214844 125.894531 83.035156 L 123.90625 78.078125 C 130.871094 75.121094 149.160156 60.15625 156.175781 49.953125 C 164.003906 38.570312 159.277344 20.992188 148.121094 16.386719 Z M 148.121094 16.386719 "/><path style=" stroke:none;fill-rule:nonzero;fill:#fe8f9b;fill-opacity:1;" d="M 93.363281 8.40625 C 93.363281 8.40625 99.195312 0.125 110.332031 2.074219 C 122.769531 4.25 129.332031 21.941406 123.609375 33.8125 C 117.882812 45.683594 99.925781 65.386719 95.261719 66.175781 C 90.59375 66.96875 64.714844 46.921875 59.804688 33.085938 C 53.585938 15.578125 63.503906 6.230469 73.867188 3.707031 C 86.632812 0.597656 93.363281 8.40625 93.363281 8.40625 Z M 93.363281 8.40625 "/><g mask="url(#2e8c1dbdfc)" transform="matrix(1,0,0,1,60,4)"><g clip-path="url(#5f1cb98f68)"><path style=" stroke:none;fill-rule:nonzero;fill:#ffffff;fill-opacity:1;" d="M 1.070312 16.589844 C 0.933594 18.171875 1.226562 20.078125 2.65625 20.761719 C 3.914062 21.363281 5.386719 20.578125 6.339844 19.554688 C 8.167969 17.585938 10.554688 11.527344 10.464844 9.082031 C 10.40625 7.476562 9.582031 4.949219 7.554688 5.3125 C 3.660156 6.007812 1.34375 13.351562 1.070312 16.589844 Z M 1.070312 16.589844 "/><path style=" stroke:none;fill-rule:nonzero;fill:#ffffff;fill-opacity:1;" d="M 10.460938 18.964844 C 9.238281 19.015625 8.160156 20.148438 8.167969 21.375 C 8.179688 22.601562 9.273438 23.714844 10.5 23.746094 C 11.722656 23.773438 12.871094 22.710938 12.9375 21.488281 C 13.003906 20.261719 11.980469 19.078125 10.761719 18.972656 "/><path style=" stroke:none;fill-rule:nonzero;fill:#ffffff;fill-opacity:1;" d="M 16.253906 26.71875 C 16.253906 26.953125 16.207031 27.179688 16.117188 27.394531 C 16.027344 27.613281 15.902344 27.804688 15.734375 27.96875 C 15.570312 28.136719 15.378906 28.265625 15.164062 28.355469 C 14.945312 28.445312 14.722656 28.488281 14.488281 28.488281 C 14.253906 28.488281 14.027344 28.445312 13.8125 28.355469 C 13.59375 28.265625 13.402344 28.136719 13.238281 27.96875 C 13.074219 27.804688 12.945312 27.613281 12.855469 27.394531 C 12.765625 27.179688 12.722656 26.953125 12.722656 26.71875 C 12.722656 26.484375 12.765625 26.257812 12.855469 26.042969 C 12.945312 25.824219 13.074219 25.632812 13.238281 25.46875 C 13.402344 25.300781 13.59375 25.171875 13.8125 25.082031 C 14.027344 24.992188 14.253906 24.949219 14.488281 24.949219 C 14.722656 24.949219 14.945312 24.992188 15.164062 25.082031 C 15.378906 25.171875 15.570312 25.300781 15.734375 25.46875 C 15.902344 25.632812 16.027344 25.824219 16.117188 26.042969 C 16.207031 26.257812 16.253906 26.484375 16.253906 26.71875 Z M 16.253906 26.71875 "/><g clip-rule="nonzero" clip-path="url(#a85aef45f5)"><path style=" stroke:none;fill-rule:nonzero;fill:#ffffff;fill-opacity:1;" d="M 38.246094 10.675781 C 39.382812 11.808594 41.132812 12.292969 42.796875 12.144531 C 44.457031 12 46.027344 11.265625 47.339844 10.277344 C 50.003906 8.269531 51.59375 4.210938 48.394531 1.527344 C 43.835938 -2.289062 32.839844 5.296875 38.246094 10.675781 Z M 38.246094 10.675781 "/></g><path style=" stroke:none;fill-rule:nonzero;fill:#ffffff;fill-opacity:1;" d="M 77.242188 22.234375 C 78.175781 22.992188 79.292969 23.484375 80.414062 23.921875 C 81.824219 24.46875 83.394531 24.945312 84.816406 24.4375 C 89.640625 22.710938 87.082031 15.066406 83.085938 14 C 78.378906 12.742188 72.382812 18.285156 77.242188 22.234375 Z M 77.242188 22.234375 "/><path style=" stroke:none;fill-rule:nonzero;fill:#ffffff;fill-opacity:1;" d="M 88.386719 26.121094 C 87.921875 27.058594 88.253906 28.40625 89.285156 28.835938 C 90.28125 29.25 91.550781 28.546875 91.796875 27.492188 C 92.011719 26.566406 91.480469 25.71875 90.679688 25.285156 C 89.828125 24.824219 88.78125 25.320312 88.386719 26.121094 Z M 88.386719 26.121094 "/></g><mask id="2e8c1dbdfc"><g filter="url(#43a8784b3e)"><rect x="0" width="238.5" y="0" height="195.749994" style="fill:#000000;fill-opacity:0.9;stroke:none;"/></g></mask></g><path style=" stroke:none;fill-rule:nonzero;fill:#fe6676;fill-opacity:1;" d="M 110.332031 2.074219 C 110.332031 2.074219 110.332031 2.074219 110.328125 2.074219 C 110.222656 2.054688 110.117188 2.039062 110.011719 2.023438 C 109.984375 2.015625 109.953125 2.011719 109.921875 2.007812 C 109.839844 1.996094 109.757812 1.984375 109.679688 1.972656 C 109.652344 1.96875 109.625 1.964844 109.597656 1.960938 C 109.492188 1.945312 109.390625 1.933594 109.285156 1.917969 C 109.265625 1.917969 109.25 1.914062 109.230469 1.914062 C 109.144531 1.902344 109.058594 1.894531 108.972656 1.882812 C 108.941406 1.878906 108.910156 1.878906 108.882812 1.875 C 108.796875 1.867188 108.710938 1.859375 108.625 1.851562 C 108.609375 1.847656 108.589844 1.847656 108.574219 1.84375 C 108.472656 1.835938 108.371094 1.828125 108.269531 1.824219 C 108.246094 1.820312 108.21875 1.820312 108.195312 1.816406 C 108.117188 1.8125 108.039062 1.808594 107.960938 1.804688 C 107.933594 1.800781 107.90625 1.800781 107.878906 1.800781 C 107.777344 1.792969 107.679688 1.789062 107.578125 1.789062 C 107.480469 1.785156 107.382812 1.78125 107.285156 1.78125 C 107.253906 1.78125 107.226562 1.78125 107.195312 1.777344 C 107.066406 1.777344 106.9375 1.777344 106.8125 1.777344 C 106.800781 1.777344 106.792969 1.777344 106.78125 1.78125 C 106.65625 1.78125 106.527344 1.785156 106.402344 1.789062 C 106.382812 1.789062 106.363281 1.789062 106.34375 1.789062 C 106.316406 1.789062 106.289062 1.792969 106.261719 1.792969 C 106.21875 1.792969 106.175781 1.796875 106.132812 1.796875 C 106.027344 1.804688 105.921875 1.808594 105.816406 1.816406 C 105.808594 1.816406 105.800781 1.816406 105.792969 1.816406 C 105.582031 1.832031 105.375 1.851562 105.171875 1.871094 C 105.160156 1.871094 105.152344 1.875 105.140625 1.875 C 104.9375 1.894531 104.738281 1.921875 104.542969 1.949219 C 104.53125 1.949219 104.515625 1.953125 104.503906 1.953125 C 104.308594 1.980469 104.117188 2.011719 103.925781 2.046875 C 103.914062 2.046875 103.902344 2.050781 103.886719 2.054688 C 103.792969 2.070312 103.703125 2.085938 103.609375 2.105469 C 114.332031 4.199219 118.550781 17.863281 114.957031 28.039062 C 111.03125 39.160156 97.953125 54.273438 88.269531 54.273438 C 82.394531 54.273438 74.984375 51.621094 68.613281 46.335938 C 68.621094 46.347656 68.632812 46.359375 68.640625 46.367188 C 68.734375 46.472656 68.832031 46.578125 68.925781 46.679688 C 68.933594 46.691406 68.941406 46.699219 68.949219 46.707031 C 77.742188 56.347656 89.832031 65.160156 94.265625 66.113281 L 93.703125 70.003906 C 93.667969 70.234375 93.96875 70.351562 94.097656 70.160156 C 94.300781 69.863281 94.488281 69.554688 94.65625 69.242188 C 94.746094 69.074219 94.988281 69.089844 95.054688 69.265625 L 95.617188 70.746094 C 95.6875 70.925781 95.941406 70.933594 96.023438 70.757812 C 96.285156 70.171875 96.503906 69.566406 96.671875 68.945312 C 96.710938 68.796875 96.886719 68.734375 97.011719 68.824219 C 97.476562 69.15625 97.96875 69.449219 98.480469 69.699219 C 98.648438 69.78125 98.835938 69.628906 98.789062 69.449219 C 98.71875 69.171875 98.617188 68.902344 98.484375 68.644531 C 98.402344 68.484375 98.539062 68.300781 98.714844 68.328125 C 98.902344 68.363281 99.039062 68.15625 98.9375 67.992188 L 97.183594 65.304688 C 103.628906 61.257812 118.480469 44.429688 123.601562 33.828125 C 123.601562 33.824219 123.605469 33.816406 123.609375 33.8125 C 125.039062 30.84375 125.703125 27.515625 125.699219 24.152344 C 125.683594 14.066406 119.660156 3.707031 110.332031 2.074219 Z M 110.332031 2.074219 "/></g></svg>