<svg xmlns="http://www.w3.org/2000/svg" xmlns:xlink="http://www.w3.org/1999/xlink" width="257" zoomAndPan="magnify" viewBox="0 0 192.75 192.749996" height="257" preserveAspectRatio="xMidYMid meet" version="1.2"><defs><clipPath id="5d78f2e4de"><path d="M 2 77 L 183.511719 77 L 183.511719 192.5 L 2 192.5 Z M 2 77 "/></clipPath></defs><g id="983143c2cd"><path style=" stroke:none;fill-rule:nonzero;fill:#b77e68;fill-opacity:1;" d="M 72.035156 21.65625 C 70.800781 16.46875 68.507812 11.117188 64.878906 7.070312 C 63.101562 5.089844 57.296875 0.0820312 54.148438 1.777344 C 49.640625 4.207031 54.632812 12.945312 56.949219 15.078125 C 63.160156 20.796875 63.753906 21.65625 63.753906 21.65625 "/><path style=" stroke:none;fill-rule:nonzero;fill:#f7aea9;fill-opacity:1;" d="M 69.761719 20.324219 C 68.945312 16.890625 67.429688 13.347656 65.027344 10.671875 C 63.847656 9.359375 60.003906 6.042969 57.921875 7.167969 C 54.941406 8.773438 58.242188 14.558594 59.773438 15.96875 C 63.886719 19.757812 64.28125 20.324219 64.28125 20.324219 "/><path style=" stroke:none;fill-rule:nonzero;fill:#b77e68;fill-opacity:1;" d="M 27.871094 21.65625 C 29.105469 16.46875 31.394531 11.117188 35.023438 7.070312 C 36.804688 5.089844 42.609375 0.0820312 45.753906 1.777344 C 50.261719 4.207031 45.273438 12.945312 42.957031 15.078125 C 36.746094 20.796875 36.152344 21.65625 36.152344 21.65625 "/><path style=" stroke:none;fill-rule:nonzero;fill:#f7aea9;fill-opacity:1;" d="M 30.144531 20.324219 C 30.960938 16.890625 32.476562 13.347656 34.878906 10.671875 C 36.054688 9.359375 39.898438 6.042969 41.984375 7.167969 C 44.964844 8.773438 41.660156 14.558594 40.128906 15.96875 C 36.019531 19.757812 35.625 20.324219 35.625 20.324219 "/><path style=" stroke:none;fill-rule:nonzero;fill:#b77e68;fill-opacity:1;" d="M 34.011719 25.847656 C 44.042969 29.542969 46.867188 46 45.445312 54.945312 L 52.019531 54.671875 C 50.59375 45.726562 53.417969 29.273438 63.453125 25.574219 C 72.160156 22.363281 82.632812 29.738281 86.351562 49.464844 L 90.464844 49.464844 C 90.421875 49.414062 90.375 49.363281 90.332031 49.308594 C 90.261719 49.21875 90.195312 49.128906 90.125 49.035156 C 90.074219 48.34375 89.996094 47.65625 89.910156 46.972656 C 89.011719 42.730469 87.464844 38.628906 85.332031 34.84375 C 84.878906 34.042969 84.402344 33.257812 83.898438 32.488281 C 80.230469 26.863281 75.195312 22.066406 69.042969 18.722656 C 65.347656 16.71875 60.90625 15.0625 56.714844 14.351562 C 54.160156 13.914062 51.621094 13.679688 49.082031 13.636719 L 49.082031 13.628906 C 48.886719 13.628906 48.6875 13.632812 48.492188 13.632812 C 48.292969 13.632812 48.097656 13.628906 47.902344 13.628906 L 47.902344 13.636719 C 45.363281 13.679688 42.824219 13.917969 40.265625 14.351562 C 36.078125 15.0625 31.636719 16.71875 27.941406 18.722656 C 21.785156 22.066406 16.753906 26.863281 13.082031 32.488281 C 12.582031 33.257812 12.101562 34.042969 11.648438 34.84375 C 9.515625 38.628906 7.972656 42.730469 7.074219 46.972656 C 6.910156 47.746094 6.769531 48.527344 6.648438 49.308594 C 6.535156 49.453125 6.414062 49.597656 6.289062 49.742188 L 11.113281 49.742188 C 14.828125 30.011719 25.300781 22.636719 34.011719 25.847656 Z M 34.011719 25.847656 "/><path style=" stroke:none;fill-rule:nonzero;fill:#f5b89a;fill-opacity:1;" d="M 96.957031 57.328125 C 96.910156 56.859375 96.707031 56.519531 96.277344 56.367188 C 95.988281 56.265625 95.71875 56.160156 95.453125 56.050781 C 96.121094 54.464844 96.335938 53.121094 95.378906 52.785156 C 93.558594 52.144531 92.265625 51.328125 91.257812 50.34375 C 90.972656 50.066406 90.710938 49.769531 90.464844 49.464844 L 86.351562 49.464844 C 82.632812 29.738281 72.160156 22.363281 63.453125 25.574219 C 53.417969 29.273438 50.59375 45.726562 52.019531 54.671875 L 45.445312 54.945312 C 46.867188 46 44.042969 29.542969 34.011719 25.847656 C 25.300781 22.636719 14.828125 30.011719 11.113281 49.742188 L 6.289062 49.742188 C 6.109375 49.945312 5.925781 50.148438 5.726562 50.34375 C 4.714844 51.328125 3.421875 52.144531 1.605469 52.785156 C 0.648438 53.121094 0.859375 54.464844 1.527344 56.050781 C 1.265625 56.160156 0.992188 56.265625 0.703125 56.367188 C 0.167969 56.558594 -0.0195312 57.050781 0.0273438 57.714844 C 0.203125 60.410156 4.230469 66.035156 4.636719 66.683594 C 5.90625 68.730469 7.402344 70.636719 9.082031 72.378906 C 11.273438 74.652344 13.777344 76.640625 16.511719 78.28125 C 24.988281 83.375 35.914062 85.882812 45.835938 86.0625 C 46.703125 86.078125 47.589844 86.082031 48.492188 86.074219 C 49.390625 86.082031 50.277344 86.078125 51.144531 86.0625 C 61.066406 85.882812 71.992188 83.375 80.46875 78.28125 C 83.203125 76.640625 85.707031 74.652344 87.902344 72.378906 C 89.582031 70.636719 91.078125 68.730469 92.34375 66.683594 C 92.769531 66 97.195312 59.832031 96.957031 57.328125 Z M 37.21875 39.675781 C 37.339844 39.714844 37.457031 39.761719 37.578125 39.804688 C 37.457031 39.761719 37.339844 39.714844 37.21875 39.675781 Z M 58.261719 39.875 C 58.378906 39.828125 58.496094 39.785156 58.617188 39.746094 C 58.496094 39.785156 58.378906 39.828125 58.261719 39.875 Z M 58.261719 39.875 "/><path style=" stroke:none;fill-rule:nonzero;fill:#ffffff;fill-opacity:1;" d="M 50.46875 65.023438 L 45.511719 65.023438 L 45.511719 61.789062 L 48.394531 59.273438 L 50.46875 61.34375 Z M 50.46875 65.023438 "/><path style=" stroke:none;fill-rule:nonzero;fill:#f6b4ca;fill-opacity:1;" d="M 49.261719 58.988281 C 49.234375 58.894531 49.207031 58.804688 49.175781 58.710938 C 49.148438 58.804688 49.117188 58.894531 49.089844 58.988281 Z M 49.261719 58.988281 "/><path style=" stroke:none;fill-rule:nonzero;fill:#2c231b;fill-opacity:1;" d="M 47.609375 59.34375 L 48.246094 59.273438 L 48.226562 59.835938 C 48.28125 59.746094 48.328125 59.652344 48.375 59.554688 C 48.125 59.027344 47.984375 58.457031 47.96875 57.863281 C 47.960938 58.382812 47.832031 58.882812 47.609375 59.34375 Z M 47.609375 59.34375 "/><path style=" stroke:none;fill-rule:nonzero;fill:#2c231b;fill-opacity:1;" d="M 48.785156 57.863281 C 48.789062 57.640625 48.585938 57.53125 48.378906 57.53125 C 48.578125 57.535156 48.78125 57.648438 48.785156 57.863281 Z M 48.785156 57.863281 "/><path style=" stroke:none;fill-rule:nonzero;fill:#2c231b;fill-opacity:1;" d="M 43.722656 61.652344 C 41.261719 61.695312 39.519531 59.792969 39.476562 57.863281 C 39.46875 57.421875 38.652344 57.421875 38.664062 57.863281 C 38.714844 60.234375 40.8125 62.285156 43.722656 62.335938 C 43.875 62.335938 44.027344 62.332031 44.175781 62.320312 L 44.175781 61.625 C 44.027344 61.640625 43.875 61.648438 43.722656 61.652344 Z M 43.722656 61.652344 "/><path style=" stroke:none;fill-rule:nonzero;fill:#2c231b;fill-opacity:1;" d="M 47.609375 59.34375 C 47.027344 60.542969 45.78125 61.457031 44.175781 61.625 L 44.175781 62.320312 C 46.007812 62.203125 47.472656 61.171875 48.226562 59.835938 L 48.246094 59.273438 Z M 47.609375 59.34375 "/><path style=" stroke:none;fill-rule:nonzero;fill:#2c231b;fill-opacity:1;" d="M 57.277344 57.863281 C 57.234375 59.859375 55.492188 61.609375 53.03125 61.652344 C 52.84375 61.65625 52.664062 61.644531 52.484375 61.628906 L 52.484375 62.300781 C 52.664062 62.320312 52.847656 62.332031 53.03125 62.335938 C 55.941406 62.386719 58.042969 60.15625 58.09375 57.863281 C 58.101562 57.421875 57.289062 57.425781 57.277344 57.863281 Z M 57.277344 57.863281 "/><path style=" stroke:none;fill-rule:nonzero;fill:#2c231b;fill-opacity:1;" d="M 48.378906 57.53125 C 48.171875 57.53125 47.964844 57.640625 47.96875 57.863281 C 47.976562 57.648438 48.175781 57.535156 48.378906 57.53125 Z M 48.378906 57.53125 "/><path style=" stroke:none;fill-rule:nonzero;fill:#2c231b;fill-opacity:1;" d="M 49.128906 59.292969 C 48.917969 58.839844 48.796875 58.351562 48.785156 57.863281 C 48.773438 58.445312 48.628906 59.019531 48.375 59.554688 C 48.449219 59.710938 48.53125 59.863281 48.625 60.011719 L 48.625 59.292969 Z M 49.128906 59.292969 "/><path style=" stroke:none;fill-rule:nonzero;fill:#2c231b;fill-opacity:1;" d="M 49.128906 59.292969 L 48.625 59.292969 L 48.625 60.011719 C 49.390625 61.226562 50.769531 62.117188 52.484375 62.300781 L 52.484375 61.628906 C 50.910156 61.464844 49.691406 60.496094 49.128906 59.292969 Z M 49.128906 59.292969 "/><path style=" stroke:none;fill-rule:nonzero;fill:#2c231b;fill-opacity:1;" d="M 48.378906 57.53125 C 48.175781 57.535156 47.976562 57.648438 47.96875 57.863281 C 47.984375 58.457031 48.125 59.027344 48.375 59.554688 C 48.628906 59.019531 48.773438 58.445312 48.785156 57.863281 C 48.78125 57.648438 48.578125 57.535156 48.378906 57.53125 Z M 48.378906 57.53125 "/><path style=" stroke:none;fill-rule:nonzero;fill:#2c231b;fill-opacity:1;" d="M 47.980469 53.570312 C 47.980469 55.226562 47.980469 56.886719 47.980469 58.542969 C 47.980469 59.050781 48.769531 59.050781 48.769531 58.542969 C 48.769531 56.886719 48.769531 55.226562 48.769531 53.570312 C 48.769531 53.0625 47.980469 53.0625 47.980469 53.570312 Z M 47.980469 53.570312 "/><path style=" stroke:none;fill-rule:nonzero;fill:#7d4332;fill-opacity:1;" d="M 43.363281 51.375 C 43.363281 47.902344 53.417969 47.933594 53.417969 51.375 C 53.421875 53.382812 50.871094 56.566406 48.703125 56.640625 C 46.160156 56.734375 43.363281 53.671875 43.363281 51.375 Z M 43.363281 51.375 "/><path style=" stroke:none;fill-rule:nonzero;fill:#ffffff;fill-opacity:0.1;" d="M 51.804688 51.070312 C 51.804688 51.28125 51.726562 51.488281 51.570312 51.683594 C 51.410156 51.878906 51.183594 52.050781 50.890625 52.199219 C 50.601562 52.351562 50.261719 52.464844 49.878906 52.546875 C 49.496094 52.628906 49.101562 52.667969 48.6875 52.667969 C 48.273438 52.667969 47.875 52.628906 47.492188 52.546875 C 47.109375 52.464844 46.773438 52.351562 46.480469 52.199219 C 46.1875 52.050781 45.960938 51.878906 45.800781 51.683594 C 45.644531 51.488281 45.566406 51.28125 45.566406 51.070312 C 45.566406 50.859375 45.644531 50.65625 45.800781 50.460938 C 45.960938 50.265625 46.1875 50.089844 46.480469 49.941406 C 46.773438 49.792969 47.109375 49.675781 47.492188 49.59375 C 47.875 49.511719 48.273438 49.472656 48.6875 49.472656 C 49.101562 49.472656 49.496094 49.511719 49.878906 49.59375 C 50.261719 49.675781 50.601562 49.792969 50.890625 49.941406 C 51.183594 50.089844 51.410156 50.265625 51.570312 50.460938 C 51.726562 50.65625 51.804688 50.859375 51.804688 51.070312 Z M 51.804688 51.070312 "/><path style=" stroke:none;fill-rule:nonzero;fill:#fac9c7;fill-opacity:1;" d="M 27.8125 52.714844 C 27.8125 53.074219 27.773438 53.429688 27.699219 53.785156 C 27.625 54.136719 27.515625 54.480469 27.367188 54.8125 C 27.222656 55.144531 27.042969 55.460938 26.832031 55.761719 C 26.617188 56.0625 26.378906 56.335938 26.105469 56.59375 C 25.835938 56.847656 25.542969 57.074219 25.226562 57.273438 C 24.90625 57.476562 24.574219 57.644531 24.21875 57.78125 C 23.867188 57.917969 23.503906 58.023438 23.128906 58.09375 C 22.753906 58.164062 22.375 58.199219 21.992188 58.199219 C 21.613281 58.199219 21.234375 58.164062 20.859375 58.09375 C 20.484375 58.023438 20.121094 57.917969 19.769531 57.78125 C 19.414062 57.644531 19.078125 57.476562 18.761719 57.273438 C 18.445312 57.074219 18.152344 56.847656 17.878906 56.59375 C 17.609375 56.335938 17.371094 56.0625 17.15625 55.761719 C 16.945312 55.460938 16.765625 55.144531 16.621094 54.8125 C 16.472656 54.480469 16.363281 54.136719 16.289062 53.785156 C 16.214844 53.429688 16.175781 53.074219 16.175781 52.714844 C 16.175781 52.351562 16.214844 51.996094 16.289062 51.644531 C 16.363281 51.289062 16.472656 50.945312 16.621094 50.613281 C 16.765625 50.28125 16.945312 49.964844 17.15625 49.664062 C 17.371094 49.367188 17.609375 49.089844 17.878906 48.835938 C 18.152344 48.578125 18.445312 48.351562 18.761719 48.152344 C 19.078125 47.953125 19.414062 47.78125 19.769531 47.644531 C 20.121094 47.507812 20.484375 47.402344 20.859375 47.332031 C 21.234375 47.261719 21.613281 47.226562 21.992188 47.226562 C 22.375 47.226562 22.753906 47.261719 23.128906 47.332031 C 23.503906 47.402344 23.867188 47.507812 24.21875 47.644531 C 24.574219 47.78125 24.90625 47.953125 25.226562 48.152344 C 25.542969 48.351562 25.835938 48.578125 26.105469 48.835938 C 26.378906 49.089844 26.617188 49.367188 26.832031 49.664062 C 27.042969 49.964844 27.222656 50.28125 27.367188 50.613281 C 27.515625 50.945312 27.625 51.289062 27.699219 51.644531 C 27.773438 51.996094 27.8125 52.351562 27.8125 52.714844 Z M 27.8125 52.714844 "/><path style=" stroke:none;fill-rule:nonzero;fill:#fac9c7;fill-opacity:1;" d="M 81.394531 52.714844 C 81.394531 53.074219 81.359375 53.429688 81.285156 53.785156 C 81.207031 54.136719 81.097656 54.480469 80.953125 54.8125 C 80.804688 55.144531 80.628906 55.460938 80.414062 55.761719 C 80.203125 56.0625 79.960938 56.335938 79.691406 56.59375 C 79.421875 56.847656 79.128906 57.074219 78.808594 57.273438 C 78.492188 57.476562 78.15625 57.644531 77.804688 57.78125 C 77.449219 57.917969 77.085938 58.023438 76.710938 58.09375 C 76.339844 58.164062 75.960938 58.199219 75.578125 58.199219 C 75.195312 58.199219 74.816406 58.164062 74.441406 58.09375 C 74.066406 58.023438 73.703125 57.917969 73.351562 57.78125 C 73 57.644531 72.664062 57.476562 72.347656 57.273438 C 72.027344 57.074219 71.734375 56.847656 71.464844 56.59375 C 71.195312 56.335938 70.953125 56.0625 70.742188 55.761719 C 70.527344 55.460938 70.347656 55.144531 70.203125 54.8125 C 70.058594 54.480469 69.945312 54.136719 69.871094 53.785156 C 69.796875 53.429688 69.761719 53.074219 69.761719 52.714844 C 69.761719 52.351562 69.796875 51.996094 69.871094 51.644531 C 69.945312 51.289062 70.058594 50.945312 70.203125 50.613281 C 70.347656 50.28125 70.527344 49.964844 70.742188 49.664062 C 70.953125 49.367188 71.195312 49.089844 71.464844 48.835938 C 71.734375 48.578125 72.027344 48.351562 72.347656 48.152344 C 72.664062 47.953125 73 47.78125 73.351562 47.644531 C 73.703125 47.507812 74.066406 47.402344 74.441406 47.332031 C 74.816406 47.261719 75.195312 47.226562 75.578125 47.226562 C 75.960938 47.226562 76.339844 47.261719 76.710938 47.332031 C 77.085938 47.402344 77.449219 47.507812 77.804688 47.644531 C 78.15625 47.78125 78.492188 47.953125 78.808594 48.152344 C 79.128906 48.351562 79.421875 48.578125 79.691406 48.835938 C 79.960938 49.089844 80.203125 49.367188 80.414062 49.664062 C 80.628906 49.964844 80.804688 50.28125 80.953125 50.613281 C 81.097656 50.945312 81.207031 51.289062 81.285156 51.644531 C 81.359375 51.996094 81.394531 52.351562 81.394531 52.714844 Z M 81.394531 52.714844 "/><path style=" stroke:none;fill-rule:nonzero;fill:#231f20;fill-opacity:1;" d="M 36.316406 52.710938 C 36.316406 53.089844 36.242188 53.453125 36.097656 53.800781 C 35.957031 54.148438 35.75 54.453125 35.484375 54.71875 C 35.21875 54.988281 34.910156 55.191406 34.5625 55.335938 C 34.214844 55.480469 33.851562 55.550781 33.476562 55.550781 C 33.097656 55.550781 32.734375 55.480469 32.386719 55.335938 C 32.039062 55.191406 31.734375 54.988281 31.464844 54.71875 C 31.199219 54.453125 30.996094 54.148438 30.851562 53.800781 C 30.707031 53.453125 30.632812 53.089844 30.632812 52.710938 C 30.632812 52.335938 30.707031 51.972656 30.851562 51.625 C 30.996094 51.277344 31.199219 50.972656 31.464844 50.703125 C 31.734375 50.4375 32.039062 50.234375 32.386719 50.089844 C 32.734375 49.945312 33.097656 49.871094 33.476562 49.871094 C 33.851562 49.871094 34.214844 49.945312 34.5625 50.089844 C 34.910156 50.234375 35.21875 50.4375 35.484375 50.703125 C 35.75 50.972656 35.957031 51.277344 36.097656 51.625 C 36.242188 51.972656 36.316406 52.335938 36.316406 52.710938 Z M 36.316406 52.710938 "/><path style=" stroke:none;fill-rule:nonzero;fill:#231f20;fill-opacity:1;" d="M 66.9375 52.710938 C 66.9375 53.089844 66.863281 53.449219 66.722656 53.796875 C 66.578125 54.148438 66.371094 54.453125 66.105469 54.71875 C 65.839844 54.984375 65.53125 55.191406 65.183594 55.335938 C 64.835938 55.480469 64.472656 55.550781 64.097656 55.550781 C 63.71875 55.550781 63.359375 55.480469 63.011719 55.335938 C 62.664062 55.191406 62.355469 54.984375 62.089844 54.71875 C 61.824219 54.453125 61.617188 54.148438 61.472656 53.796875 C 61.328125 53.449219 61.257812 53.089844 61.257812 52.710938 C 61.257812 52.335938 61.328125 51.972656 61.472656 51.625 C 61.617188 51.277344 61.824219 50.972656 62.089844 50.707031 C 62.355469 50.4375 62.664062 50.234375 63.011719 50.089844 C 63.359375 49.945312 63.71875 49.875 64.097656 49.875 C 64.472656 49.875 64.835938 49.945312 65.183594 50.089844 C 65.53125 50.234375 65.839844 50.4375 66.105469 50.707031 C 66.371094 50.972656 66.578125 51.277344 66.722656 51.625 C 66.863281 51.972656 66.9375 52.335938 66.9375 52.710938 Z M 66.9375 52.710938 "/><g clip-rule="nonzero" clip-path="url(#5d78f2e4de)"><path style=" stroke:none;fill-rule:nonzero;fill:#cb9860;fill-opacity:1;" d="M 2.71875 77.082031 L 183.503906 77.082031 L 183.503906 192.390625 L 2.71875 192.390625 Z M 2.71875 77.082031 "/></g><path style=" stroke:none;fill-rule:nonzero;fill:#231f20;fill-opacity:1;" d="M 90.507812 80.402344 C 90.25 83.574219 88.109375 86.527344 84.625 85.863281 C 84.023438 85.75 82.6875 84.761719 82.226562 84.820312 C 81.46875 84.925781 81.699219 85.4375 81.023438 85.9375 C 79.125 87.335938 76.550781 86.902344 75.203125 85.027344 C 64.527344 89.527344 68.039062 74.988281 74.550781 72.273438 C 77.796875 70.921875 81.941406 70.902344 85.25 72.050781 C 86.863281 72.605469 88.445312 73.5 89.425781 74.941406 C 90.28125 76.1875 90.671875 78.347656 90.507812 80.402344 Z M 90.507812 80.402344 "/><path style=" stroke:none;fill-rule:nonzero;fill:#b77e68;fill-opacity:1;" d="M 90.9375 81.269531 C 90.683594 84.441406 88.542969 87.390625 85.058594 86.730469 C 84.457031 86.613281 83.121094 85.625 82.660156 85.6875 C 81.898438 85.792969 82.132812 86.304688 81.457031 86.800781 C 79.558594 88.199219 76.984375 87.769531 75.636719 85.894531 C 64.960938 90.394531 68.472656 75.851562 74.984375 73.136719 C 78.230469 71.789062 82.371094 71.769531 85.683594 72.914062 C 87.296875 73.46875 88.878906 74.367188 89.859375 75.804688 C 90.714844 77.054688 91.105469 79.214844 90.9375 81.269531 Z M 90.9375 81.269531 "/><path style=" stroke:none;fill-rule:nonzero;fill:#231f20;fill-opacity:1;" d="M 8.617188 80.402344 C 8.871094 83.574219 11.015625 86.527344 14.496094 85.863281 C 15.097656 85.75 16.4375 84.761719 16.898438 84.820312 C 17.65625 84.925781 17.425781 85.4375 18.101562 85.9375 C 19.996094 87.335938 22.574219 86.902344 23.917969 85.027344 C 34.597656 89.527344 31.082031 74.988281 24.574219 72.273438 C 21.324219 70.921875 17.183594 70.902344 13.875 72.050781 C 12.261719 72.605469 10.679688 73.5 9.695312 74.941406 C 8.84375 76.1875 8.449219 78.347656 8.617188 80.402344 Z M 8.617188 80.402344 "/><path style=" stroke:none;fill-rule:nonzero;fill:#b77e68;fill-opacity:1;" d="M 8.183594 81.269531 C 8.4375 84.441406 10.582031 87.390625 14.0625 86.730469 C 14.667969 86.613281 16.003906 85.625 16.464844 85.6875 C 17.222656 85.792969 16.992188 86.304688 17.667969 86.800781 C 19.5625 88.199219 22.140625 87.769531 23.484375 85.894531 C 34.164062 90.394531 30.652344 75.851562 24.140625 73.136719 C 20.890625 71.789062 16.75 71.769531 13.441406 72.914062 C 11.828125 73.46875 10.246094 74.367188 9.261719 75.804688 C 8.410156 77.054688 8.019531 79.214844 8.183594 81.269531 Z M 8.183594 81.269531 "/><g style="fill:#efd462;fill-opacity:1;"><g transform="translate(99.230987, 34.505068)"><path style="stroke:none" d="M 3.4375 0.0625 C 2.8125 0.0625 2.316406 -0.113281 1.953125 -0.46875 C 1.597656 -0.832031 1.421875 -1.328125 1.421875 -1.953125 L 1.421875 -13.21875 C 1.578125 -13.238281 1.828125 -13.273438 2.171875 -13.328125 C 2.523438 -13.378906 2.859375 -13.40625 3.171875 -13.40625 C 3.503906 -13.40625 3.796875 -13.378906 4.046875 -13.328125 C 4.304688 -13.273438 4.523438 -13.179688 4.703125 -13.046875 C 4.878906 -12.921875 5.007812 -12.742188 5.09375 -12.515625 C 5.175781 -12.285156 5.21875 -11.976562 5.21875 -11.59375 L 5.21875 -3 L 10.203125 -3 C 10.304688 -2.84375 10.398438 -2.628906 10.484375 -2.359375 C 10.578125 -2.085938 10.625 -1.8125 10.625 -1.53125 C 10.625 -0.945312 10.5 -0.535156 10.25 -0.296875 C 10 -0.0546875 9.671875 0.0625 9.265625 0.0625 Z M 3.4375 0.0625 "/></g></g><g style="fill:#efd462;fill-opacity:1;"><g transform="translate(110.392262, 34.505068)"><path style="stroke:none" d="M 12.078125 -5.296875 C 12.078125 -4.390625 11.9375 -3.582031 11.65625 -2.875 C 11.382812 -2.175781 11 -1.585938 10.5 -1.109375 C 10 -0.628906 9.398438 -0.265625 8.703125 -0.015625 C 8.003906 0.222656 7.226562 0.34375 6.375 0.34375 C 5.519531 0.34375 4.742188 0.210938 4.046875 -0.046875 C 3.347656 -0.304688 2.75 -0.675781 2.25 -1.15625 C 1.75 -1.644531 1.359375 -2.238281 1.078125 -2.9375 C 0.804688 -3.632812 0.671875 -4.421875 0.671875 -5.296875 C 0.671875 -6.148438 0.804688 -6.921875 1.078125 -7.609375 C 1.359375 -8.304688 1.75 -8.898438 2.25 -9.390625 C 2.75 -9.878906 3.347656 -10.253906 4.046875 -10.515625 C 4.742188 -10.773438 5.519531 -10.90625 6.375 -10.90625 C 7.226562 -10.90625 8.003906 -10.769531 8.703125 -10.5 C 9.398438 -10.226562 10 -9.847656 10.5 -9.359375 C 11 -8.878906 11.382812 -8.289062 11.65625 -7.59375 C 11.9375 -6.894531 12.078125 -6.128906 12.078125 -5.296875 Z M 4.46875 -5.296875 C 4.46875 -4.410156 4.632812 -3.726562 4.96875 -3.25 C 5.3125 -2.78125 5.789062 -2.546875 6.40625 -2.546875 C 7.007812 -2.546875 7.472656 -2.785156 7.796875 -3.265625 C 8.128906 -3.742188 8.296875 -4.421875 8.296875 -5.296875 C 8.296875 -6.160156 8.128906 -6.828125 7.796875 -7.296875 C 7.460938 -7.773438 6.988281 -8.015625 6.375 -8.015625 C 5.769531 -8.015625 5.300781 -7.773438 4.96875 -7.296875 C 4.632812 -6.828125 4.46875 -6.160156 4.46875 -5.296875 Z M 4.46875 -5.296875 "/></g></g><g style="fill:#efd462;fill-opacity:1;"><g transform="translate(123.141789, 34.505068)"><path style="stroke:none" d="M 11.46875 -1.921875 C 11.394531 -1.234375 11.191406 -0.707031 10.859375 -0.34375 C 10.535156 0.0195312 10.066406 0.203125 9.453125 0.203125 C 8.984375 0.203125 8.566406 0.0859375 8.203125 -0.140625 C 7.835938 -0.367188 7.445312 -0.75 7.03125 -1.28125 L 4.875 -3.984375 L 4.875 -0.015625 C 4.71875 0.00390625 4.484375 0.0390625 4.171875 0.09375 C 3.859375 0.144531 3.539062 0.171875 3.21875 0.171875 C 2.90625 0.171875 2.617188 0.148438 2.359375 0.109375 C 2.109375 0.0664062 1.894531 -0.015625 1.71875 -0.140625 C 1.539062 -0.273438 1.40625 -0.453125 1.3125 -0.671875 C 1.21875 -0.898438 1.171875 -1.195312 1.171875 -1.5625 L 1.171875 -14.171875 C 1.335938 -14.210938 1.570312 -14.257812 1.875 -14.3125 C 2.1875 -14.363281 2.503906 -14.390625 2.828125 -14.390625 C 3.148438 -14.390625 3.4375 -14.363281 3.6875 -14.3125 C 3.9375 -14.269531 4.148438 -14.179688 4.328125 -14.046875 C 4.503906 -13.921875 4.640625 -13.742188 4.734375 -13.515625 C 4.828125 -13.296875 4.875 -13.003906 4.875 -12.640625 L 4.875 -6.90625 L 8.625 -10.734375 C 9.375 -10.734375 9.976562 -10.566406 10.4375 -10.234375 C 10.894531 -9.898438 11.125 -9.476562 11.125 -8.96875 C 11.125 -8.75 11.085938 -8.546875 11.015625 -8.359375 C 10.941406 -8.179688 10.828125 -8 10.671875 -7.8125 C 10.523438 -7.625 10.332031 -7.425781 10.09375 -7.21875 C 9.851562 -7.007812 9.570312 -6.765625 9.25 -6.484375 L 7.984375 -5.390625 Z M 11.46875 -1.921875 "/></g></g><g style="fill:#efd462;fill-opacity:1;"><g transform="translate(135.216856, 34.505068)"><path style="stroke:none" d="M 5.65625 -2.34375 C 5.90625 -2.34375 6.175781 -2.367188 6.46875 -2.421875 C 6.769531 -2.472656 6.992188 -2.546875 7.140625 -2.640625 L 7.140625 -4.375 L 5.578125 -4.25 C 5.171875 -4.21875 4.832031 -4.128906 4.5625 -3.984375 C 4.300781 -3.835938 4.171875 -3.617188 4.171875 -3.328125 C 4.171875 -3.035156 4.285156 -2.796875 4.515625 -2.609375 C 4.742188 -2.429688 5.125 -2.34375 5.65625 -2.34375 Z M 5.484375 -10.90625 C 6.265625 -10.90625 6.976562 -10.820312 7.625 -10.65625 C 8.269531 -10.5 8.820312 -10.257812 9.28125 -9.9375 C 9.738281 -9.613281 10.085938 -9.195312 10.328125 -8.6875 C 10.578125 -8.1875 10.703125 -7.597656 10.703125 -6.921875 L 10.703125 -2.046875 C 10.703125 -1.671875 10.597656 -1.363281 10.390625 -1.125 C 10.179688 -0.882812 9.929688 -0.675781 9.640625 -0.5 C 8.703125 0.0625 7.375 0.34375 5.65625 0.34375 C 4.882812 0.34375 4.191406 0.269531 3.578125 0.125 C 2.960938 -0.0195312 2.429688 -0.234375 1.984375 -0.515625 C 1.546875 -0.804688 1.207031 -1.175781 0.96875 -1.625 C 0.726562 -2.082031 0.609375 -2.609375 0.609375 -3.203125 C 0.609375 -4.203125 0.90625 -4.96875 1.5 -5.5 C 2.09375 -6.039062 3.015625 -6.378906 4.265625 -6.515625 L 7.125 -6.8125 L 7.125 -6.96875 C 7.125 -7.382812 6.9375 -7.679688 6.5625 -7.859375 C 6.1875 -8.046875 5.65625 -8.140625 4.96875 -8.140625 C 4.414062 -8.140625 3.875 -8.082031 3.34375 -7.96875 C 2.820312 -7.851562 2.351562 -7.707031 1.9375 -7.53125 C 1.75 -7.664062 1.585938 -7.863281 1.453125 -8.125 C 1.328125 -8.394531 1.265625 -8.675781 1.265625 -8.96875 C 1.265625 -9.34375 1.351562 -9.640625 1.53125 -9.859375 C 1.71875 -10.085938 2 -10.285156 2.375 -10.453125 C 2.789062 -10.609375 3.285156 -10.722656 3.859375 -10.796875 C 4.429688 -10.867188 4.972656 -10.90625 5.484375 -10.90625 Z M 5.484375 -10.90625 "/></g></g><g style="fill:#efd462;fill-opacity:1;"><g transform="translate(147.052604, 34.505068)"><path style="stroke:none" d="M 10.0625 -3.15625 C 10.0625 -2.050781 9.644531 -1.1875 8.8125 -0.5625 C 7.988281 0.0625 6.769531 0.375 5.15625 0.375 C 4.550781 0.375 3.984375 0.328125 3.453125 0.234375 C 2.929688 0.148438 2.484375 0.0195312 2.109375 -0.15625 C 1.742188 -0.34375 1.457031 -0.570312 1.25 -0.84375 C 1.039062 -1.125 0.9375 -1.453125 0.9375 -1.828125 C 0.9375 -2.171875 1.007812 -2.460938 1.15625 -2.703125 C 1.300781 -2.941406 1.472656 -3.144531 1.671875 -3.3125 C 2.097656 -3.070312 2.582031 -2.863281 3.125 -2.6875 C 3.664062 -2.507812 4.289062 -2.421875 5 -2.421875 C 5.457031 -2.421875 5.804688 -2.484375 6.046875 -2.609375 C 6.285156 -2.742188 6.40625 -2.921875 6.40625 -3.140625 C 6.40625 -3.335938 6.316406 -3.492188 6.140625 -3.609375 C 5.960938 -3.722656 5.671875 -3.816406 5.265625 -3.890625 L 4.609375 -4.03125 C 3.347656 -4.269531 2.410156 -4.65625 1.796875 -5.1875 C 1.179688 -5.71875 0.875 -6.476562 0.875 -7.46875 C 0.875 -8 0.988281 -8.484375 1.21875 -8.921875 C 1.445312 -9.359375 1.769531 -9.722656 2.1875 -10.015625 C 2.613281 -10.304688 3.117188 -10.53125 3.703125 -10.6875 C 4.296875 -10.84375 4.945312 -10.921875 5.65625 -10.921875 C 6.195312 -10.921875 6.703125 -10.878906 7.171875 -10.796875 C 7.640625 -10.722656 8.046875 -10.601562 8.390625 -10.4375 C 8.742188 -10.28125 9.019531 -10.078125 9.21875 -9.828125 C 9.425781 -9.578125 9.53125 -9.273438 9.53125 -8.921875 C 9.53125 -8.585938 9.46875 -8.300781 9.34375 -8.0625 C 9.21875 -7.820312 9.0625 -7.625 8.875 -7.46875 C 8.757812 -7.539062 8.585938 -7.613281 8.359375 -7.6875 C 8.128906 -7.769531 7.875 -7.84375 7.59375 -7.90625 C 7.320312 -7.976562 7.039062 -8.035156 6.75 -8.078125 C 6.46875 -8.117188 6.210938 -8.140625 5.984375 -8.140625 C 5.503906 -8.140625 5.132812 -8.082031 4.875 -7.96875 C 4.613281 -7.863281 4.484375 -7.695312 4.484375 -7.46875 C 4.484375 -7.300781 4.554688 -7.164062 4.703125 -7.0625 C 4.847656 -6.96875 5.125 -6.878906 5.53125 -6.796875 L 6.203125 -6.640625 C 7.597656 -6.316406 8.585938 -5.875 9.171875 -5.3125 C 9.765625 -4.757812 10.0625 -4.039062 10.0625 -3.15625 Z M 10.0625 -3.15625 "/></g></g><g style="fill:#efd462;fill-opacity:1;"><g transform="translate(157.756983, 34.505068)"><path style="stroke:none" d="M 1.046875 -13.515625 C 1.046875 -14.066406 1.226562 -14.53125 1.59375 -14.90625 C 1.96875 -15.28125 2.457031 -15.46875 3.0625 -15.46875 C 3.675781 -15.46875 4.164062 -15.28125 4.53125 -14.90625 C 4.90625 -14.53125 5.09375 -14.066406 5.09375 -13.515625 C 5.09375 -12.960938 4.90625 -12.5 4.53125 -12.125 C 4.164062 -11.75 3.675781 -11.5625 3.0625 -11.5625 C 2.457031 -11.5625 1.96875 -11.75 1.59375 -12.125 C 1.226562 -12.5 1.046875 -12.960938 1.046875 -13.515625 Z M 4.921875 -0.015625 C 4.753906 0.00390625 4.515625 0.0390625 4.203125 0.09375 C 3.898438 0.144531 3.585938 0.171875 3.265625 0.171875 C 2.941406 0.171875 2.65625 0.148438 2.40625 0.109375 C 2.15625 0.0664062 1.941406 -0.015625 1.765625 -0.140625 C 1.585938 -0.273438 1.453125 -0.453125 1.359375 -0.671875 C 1.265625 -0.898438 1.21875 -1.195312 1.21875 -1.5625 L 1.21875 -10.421875 C 1.375 -10.453125 1.609375 -10.492188 1.921875 -10.546875 C 2.234375 -10.597656 2.550781 -10.625 2.875 -10.625 C 3.195312 -10.625 3.484375 -10.597656 3.734375 -10.546875 C 3.984375 -10.503906 4.195312 -10.414062 4.375 -10.28125 C 4.550781 -10.15625 4.6875 -9.976562 4.78125 -9.75 C 4.875 -9.53125 4.921875 -9.238281 4.921875 -8.875 Z M 4.921875 -0.015625 "/></g></g><g style="fill:#efd462;fill-opacity:1;"><g transform="translate(108.378478, 64.423932)"><path style="stroke:none" d="M 4.21875 -12.796875 C 4.46875 -12.941406 4.84375 -13.078125 5.34375 -13.203125 C 5.84375 -13.335938 6.347656 -13.40625 6.859375 -13.40625 C 7.578125 -13.40625 8.21875 -13.300781 8.78125 -13.09375 C 9.34375 -12.882812 9.703125 -12.554688 9.859375 -12.109375 C 10.117188 -11.347656 10.398438 -10.46875 10.703125 -9.46875 C 11.015625 -8.46875 11.320312 -7.429688 11.625 -6.359375 C 11.925781 -5.296875 12.222656 -4.242188 12.515625 -3.203125 C 12.804688 -2.171875 13.0625 -1.253906 13.28125 -0.453125 C 13.101562 -0.253906 12.835938 -0.09375 12.484375 0.03125 C 12.140625 0.15625 11.726562 0.21875 11.25 0.21875 C 10.90625 0.21875 10.613281 0.1875 10.375 0.125 C 10.132812 0.0703125 9.9375 -0.0078125 9.78125 -0.125 C 9.632812 -0.25 9.507812 -0.40625 9.40625 -0.59375 C 9.3125 -0.78125 9.226562 -0.992188 9.15625 -1.234375 L 8.765625 -2.75 L 4.828125 -2.75 C 4.710938 -2.3125 4.597656 -1.859375 4.484375 -1.390625 C 4.367188 -0.929688 4.253906 -0.484375 4.140625 -0.046875 C 3.929688 0.0234375 3.710938 0.0859375 3.484375 0.140625 C 3.265625 0.191406 2.992188 0.21875 2.671875 0.21875 C 1.929688 0.21875 1.382812 0.09375 1.03125 -0.15625 C 0.675781 -0.414062 0.5 -0.769531 0.5 -1.21875 C 0.5 -1.425781 0.523438 -1.628906 0.578125 -1.828125 C 0.640625 -2.035156 0.707031 -2.273438 0.78125 -2.546875 C 0.882812 -2.941406 1.023438 -3.425781 1.203125 -4 C 1.390625 -4.582031 1.59375 -5.210938 1.8125 -5.890625 C 2.03125 -6.566406 2.257812 -7.257812 2.5 -7.96875 C 2.75 -8.675781 2.984375 -9.34375 3.203125 -9.96875 C 3.421875 -10.601562 3.617188 -11.164062 3.796875 -11.65625 C 3.972656 -12.15625 4.113281 -12.535156 4.21875 -12.796875 Z M 6.828125 -9.984375 C 6.628906 -9.378906 6.398438 -8.703125 6.140625 -7.953125 C 5.890625 -7.203125 5.664062 -6.445312 5.46875 -5.6875 L 8.15625 -5.6875 C 7.957031 -6.46875 7.75 -7.226562 7.53125 -7.96875 C 7.320312 -8.71875 7.132812 -9.390625 6.96875 -9.984375 Z M 6.828125 -9.984375 "/></g></g><g style="fill:#efd462;fill-opacity:1;"><g transform="translate(122.020044, 64.423932)"><path style="stroke:none" d="M 4.828125 -0.015625 C 4.679688 0.0234375 4.453125 0.0664062 4.140625 0.109375 C 3.828125 0.148438 3.503906 0.171875 3.171875 0.171875 C 2.859375 0.171875 2.570312 0.148438 2.3125 0.109375 C 2.0625 0.0664062 1.847656 -0.015625 1.671875 -0.140625 C 1.503906 -0.273438 1.367188 -0.453125 1.265625 -0.671875 C 1.171875 -0.898438 1.125 -1.195312 1.125 -1.5625 L 1.125 -8.09375 C 1.125 -8.425781 1.1875 -8.710938 1.3125 -8.953125 C 1.4375 -9.191406 1.613281 -9.40625 1.84375 -9.59375 C 2.082031 -9.78125 2.367188 -9.953125 2.703125 -10.109375 C 3.046875 -10.265625 3.410156 -10.398438 3.796875 -10.515625 C 4.191406 -10.628906 4.597656 -10.71875 5.015625 -10.78125 C 5.441406 -10.851562 5.867188 -10.890625 6.296875 -10.890625 C 6.984375 -10.890625 7.53125 -10.753906 7.9375 -10.484375 C 8.34375 -10.210938 8.546875 -9.769531 8.546875 -9.15625 C 8.546875 -8.957031 8.515625 -8.757812 8.453125 -8.5625 C 8.398438 -8.363281 8.332031 -8.1875 8.25 -8.03125 C 7.945312 -8.03125 7.632812 -8.015625 7.3125 -7.984375 C 6.988281 -7.953125 6.675781 -7.90625 6.375 -7.84375 C 6.070312 -7.789062 5.785156 -7.734375 5.515625 -7.671875 C 5.242188 -7.609375 5.015625 -7.53125 4.828125 -7.4375 Z M 4.828125 -0.015625 "/></g></g><g style="fill:#efd462;fill-opacity:1;"><g transform="translate(130.962123, 64.423932)"><path style="stroke:none" d="M 6.71875 0.34375 C 5.863281 0.34375 5.070312 0.222656 4.34375 -0.015625 C 3.613281 -0.253906 2.972656 -0.613281 2.421875 -1.09375 C 1.878906 -1.570312 1.453125 -2.171875 1.140625 -2.890625 C 0.828125 -3.617188 0.671875 -4.46875 0.671875 -5.4375 C 0.671875 -6.394531 0.828125 -7.21875 1.140625 -7.90625 C 1.453125 -8.601562 1.863281 -9.171875 2.375 -9.609375 C 2.882812 -10.046875 3.460938 -10.367188 4.109375 -10.578125 C 4.765625 -10.796875 5.429688 -10.90625 6.109375 -10.90625 C 6.878906 -10.90625 7.578125 -10.785156 8.203125 -10.546875 C 8.835938 -10.316406 9.382812 -10 9.84375 -9.59375 C 10.300781 -9.1875 10.65625 -8.703125 10.90625 -8.140625 C 11.164062 -7.578125 11.296875 -6.960938 11.296875 -6.296875 C 11.296875 -5.796875 11.15625 -5.414062 10.875 -5.15625 C 10.601562 -4.894531 10.222656 -4.726562 9.734375 -4.65625 L 4.359375 -3.859375 C 4.515625 -3.378906 4.835938 -3.019531 5.328125 -2.78125 C 5.828125 -2.539062 6.394531 -2.421875 7.03125 -2.421875 C 7.625 -2.421875 8.1875 -2.492188 8.71875 -2.640625 C 9.25 -2.796875 9.679688 -2.972656 10.015625 -3.171875 C 10.242188 -3.023438 10.4375 -2.820312 10.59375 -2.5625 C 10.757812 -2.300781 10.84375 -2.023438 10.84375 -1.734375 C 10.84375 -1.085938 10.535156 -0.601562 9.921875 -0.28125 C 9.460938 -0.03125 8.941406 0.132812 8.359375 0.21875 C 7.773438 0.300781 7.226562 0.34375 6.71875 0.34375 Z M 6.109375 -8.203125 C 5.765625 -8.203125 5.460938 -8.144531 5.203125 -8.03125 C 4.953125 -7.914062 4.75 -7.765625 4.59375 -7.578125 C 4.4375 -7.398438 4.316406 -7.195312 4.234375 -6.96875 C 4.148438 -6.75 4.101562 -6.523438 4.09375 -6.296875 L 7.8125 -6.90625 C 7.769531 -7.1875 7.609375 -7.472656 7.328125 -7.765625 C 7.054688 -8.054688 6.648438 -8.203125 6.109375 -8.203125 Z M 6.109375 -8.203125 "/></g></g><g style="fill:#efd462;fill-opacity:1;"><g transform="translate(142.906648, 64.423932)"><path style="stroke:none" d="M 5.65625 -2.34375 C 5.90625 -2.34375 6.175781 -2.367188 6.46875 -2.421875 C 6.769531 -2.472656 6.992188 -2.546875 7.140625 -2.640625 L 7.140625 -4.375 L 5.578125 -4.25 C 5.171875 -4.21875 4.832031 -4.128906 4.5625 -3.984375 C 4.300781 -3.835938 4.171875 -3.617188 4.171875 -3.328125 C 4.171875 -3.035156 4.285156 -2.796875 4.515625 -2.609375 C 4.742188 -2.429688 5.125 -2.34375 5.65625 -2.34375 Z M 5.484375 -10.90625 C 6.265625 -10.90625 6.976562 -10.820312 7.625 -10.65625 C 8.269531 -10.5 8.820312 -10.257812 9.28125 -9.9375 C 9.738281 -9.613281 10.085938 -9.195312 10.328125 -8.6875 C 10.578125 -8.1875 10.703125 -7.597656 10.703125 -6.921875 L 10.703125 -2.046875 C 10.703125 -1.671875 10.597656 -1.363281 10.390625 -1.125 C 10.179688 -0.882812 9.929688 -0.675781 9.640625 -0.5 C 8.703125 0.0625 7.375 0.34375 5.65625 0.34375 C 4.882812 0.34375 4.191406 0.269531 3.578125 0.125 C 2.960938 -0.0195312 2.429688 -0.234375 1.984375 -0.515625 C 1.546875 -0.804688 1.207031 -1.175781 0.96875 -1.625 C 0.726562 -2.082031 0.609375 -2.609375 0.609375 -3.203125 C 0.609375 -4.203125 0.90625 -4.96875 1.5 -5.5 C 2.09375 -6.039062 3.015625 -6.378906 4.265625 -6.515625 L 7.125 -6.8125 L 7.125 -6.96875 C 7.125 -7.382812 6.9375 -7.679688 6.5625 -7.859375 C 6.1875 -8.046875 5.65625 -8.140625 4.96875 -8.140625 C 4.414062 -8.140625 3.875 -8.082031 3.34375 -7.96875 C 2.820312 -7.851562 2.351562 -7.707031 1.9375 -7.53125 C 1.75 -7.664062 1.585938 -7.863281 1.453125 -8.125 C 1.328125 -8.394531 1.265625 -8.675781 1.265625 -8.96875 C 1.265625 -9.34375 1.351562 -9.640625 1.53125 -9.859375 C 1.71875 -10.085938 2 -10.285156 2.375 -10.453125 C 2.789062 -10.609375 3.285156 -10.722656 3.859375 -10.796875 C 4.429688 -10.867188 4.972656 -10.90625 5.484375 -10.90625 Z M 5.484375 -10.90625 "/></g></g></g></svg>