<svg xmlns="http://www.w3.org/2000/svg" xmlns:xlink="http://www.w3.org/1999/xlink" width="245" zoomAndPan="magnify" viewBox="0 0 183.75 192.749995" height="257" preserveAspectRatio="xMidYMid meet" version="1.2"><defs><clipPath id="197d791040"><path d="M 82 149 L 89 149 L 89 159.640625 L 82 159.640625 Z M 82 149 "/></clipPath><clipPath id="90359aae95"><path d="M 92 159 L 93 159 L 93 159.640625 L 92 159.640625 Z M 92 159 "/></clipPath><clipPath id="ccc3158cca"><path d="M 76.21875 143 L 79 143 L 79 146 L 76.21875 146 Z M 76.21875 143 "/></clipPath><clipPath id="eeda3c0529"><path d="M 95 127.4375 L 96 127.4375 L 96 129 L 95 129 Z M 95 127.4375 "/></clipPath><clipPath id="37f9235ef0"><path d="M 111 153 L 111.421875 153 L 111.421875 155 L 111 155 Z M 111 153 "/></clipPath><clipPath id="2e91f6b490"><path d="M 2 77 L 183.5 77 L 183.5 192.496094 L 2 192.496094 Z M 2 77 "/></clipPath></defs><g id="b3f8186d1e"><path style=" stroke:none;fill-rule:nonzero;fill:#7d6bbd;fill-opacity:1;" d="M 98.042969 131.515625 C 98.042969 131.515625 98.046875 131.050781 98.042969 131.050781 C 98.039062 131.050781 98.039062 131.515625 98.042969 131.515625 Z M 98.042969 131.515625 "/><path style=" stroke:none;fill-rule:nonzero;fill:#6ccfed;fill-opacity:1;" d="M 81.117188 139.203125 C 80.804688 139.890625 80.640625 140.734375 81.089844 141.398438 C 81.46875 141.996094 82.1875 142.421875 82.882812 142.453125 C 83.351562 142.46875 83.6875 142.144531 83.945312 141.792969 C 84.03125 141.664062 84.140625 141.519531 84.128906 141.390625 C 84.128906 141.398438 84.132812 141.402344 84.117188 141.390625 C 84.109375 141.382812 84.066406 141.371094 84.042969 141.355469 C 83.675781 141.285156 83.347656 141.644531 83.136719 141.914062 C 82.984375 142.109375 82.917969 142.316406 82.882812 142.550781 C 82.789062 143.359375 83.433594 144.125 84.199219 144.300781 C 84.40625 144.335938 84.714844 144.296875 84.867188 144.160156 C 84.867188 144.140625 84.851562 144.0625 84.824219 144.039062 C 84.695312 143.941406 84.460938 144 84.300781 144.054688 C 84.125 144.125 83.90625 144.246094 83.847656 144.421875 C 83.800781 144.570312 83.789062 144.730469 83.820312 144.882812 C 83.980469 145.679688 84.949219 146.542969 85.742188 146.394531 C 85.804688 146.382812 85.890625 146.339844 85.917969 146.316406 C 85.917969 146.320312 85.917969 146.355469 85.925781 146.351562 C 85.929688 146.351562 85.917969 146.335938 85.898438 146.320312 C 85.78125 146.226562 85.632812 146.328125 85.574219 146.449219 C 85.386719 146.851562 85.734375 147.398438 85.957031 147.738281 C 86.261719 148.167969 86.632812 148.550781 86.992188 148.9375 C 86.992188 148.9375 86.960938 148.972656 86.960938 148.972656 C 86.300781 148.347656 85.496094 147.699219 85.300781 146.757812 C 85.222656 146.335938 85.605469 145.828125 86.042969 146.082031 C 86.167969 146.152344 86.257812 146.324219 86.175781 146.460938 C 86.105469 146.585938 85.964844 146.648438 85.835938 146.691406 C 85.046875 146.90625 84.214844 146.316406 83.765625 145.703125 C 83.449219 145.269531 83.261719 144.660156 83.507812 144.15625 C 83.726562 143.800781 84.132812 143.601562 84.535156 143.550781 C 84.808594 143.515625 85.132812 143.613281 85.25 143.886719 C 85.308594 144.019531 85.335938 144.171875 85.289062 144.308594 C 85.183594 144.589844 84.878906 144.695312 84.613281 144.746094 C 83.800781 144.894531 82.996094 144.296875 82.640625 143.585938 C 82.328125 142.980469 82.363281 142.191406 82.796875 141.65625 C 83.046875 141.335938 83.371094 141.046875 83.769531 140.953125 C 84.234375 140.867188 84.691406 141.175781 84.445312 141.675781 C 84.332031 141.925781 84.148438 142.128906 83.957031 142.320312 C 83.449219 142.867188 82.730469 142.859375 82.089844 142.558594 C 81.089844 142.121094 80.402344 141.023438 80.765625 139.925781 C 80.839844 139.664062 80.953125 139.421875 81.078125 139.183594 L 81.117188 139.207031 Z M 81.117188 139.203125 "/><path style=" stroke:none;fill-rule:nonzero;fill:#7d6bbd;fill-opacity:1;" d="M 91.757812 130.648438 C 91.496094 130.894531 91.25 131.167969 91.035156 131.453125 C 90.585938 131.957031 91.125 132.507812 91.410156 132.976562 C 91.710938 133.414062 91.851562 133.941406 91.730469 134.46875 C 91.585938 135.265625 91.070312 135.925781 91.628906 136.65625 C 91.953125 137.132812 92.402344 137.445312 92.78125 137.910156 C 92.984375 138.160156 93.167969 138.457031 93.28125 138.78125 C 93.847656 140.402344 92.339844 141.65625 91.804688 143.035156 C 91.804688 143.035156 91.757812 143.023438 91.757812 143.023438 C 91.886719 142.445312 92.175781 141.925781 92.441406 141.40625 C 92.832031 140.65625 93.242188 139.769531 92.902344 138.925781 C 92.503906 137.8125 91.066406 137.34375 90.929688 136.089844 C 90.839844 135.207031 91.636719 134.414062 91.304688 133.535156 C 90.96875 132.699219 90.101562 131.96875 91.054688 131.171875 C 91.265625 130.96875 91.492188 130.78125 91.730469 130.613281 C 91.730469 130.613281 91.757812 130.648438 91.757812 130.648438 Z M 91.757812 130.648438 "/><path style=" stroke:none;fill-rule:nonzero;fill:#f46c1f;fill-opacity:1;" d="M 101.390625 139.804688 C 101.675781 141.5625 101.394531 143.476562 100.601562 145.09375 C 100.09375 146.003906 98.820312 146.53125 97.863281 146.042969 C 97.050781 145.621094 96.777344 144.355469 97.5 143.710938 C 97.925781 143.316406 98.582031 143.429688 98.894531 143.902344 C 99.136719 144.25 99.199219 144.628906 99.210938 145.027344 C 99.269531 146.40625 98.429688 147.84375 97.164062 148.363281 C 97.164062 148.363281 97.140625 148.320312 97.140625 148.320312 C 98.261719 147.679688 98.953125 146.347656 98.851562 145.050781 C 98.828125 144.734375 98.765625 144.40625 98.574219 144.148438 C 98.230469 143.671875 97.683594 143.925781 97.558594 144.433594 C 97.441406 144.890625 97.664062 145.421875 98.082031 145.636719 C 98.507812 145.863281 99.03125 145.785156 99.449219 145.585938 C 99.894531 145.386719 100.226562 145.015625 100.40625 144.5625 C 101.09375 143.082031 101.402344 141.4375 101.347656 139.804688 C 101.347656 139.804688 101.394531 139.800781 101.394531 139.800781 Z M 101.390625 139.804688 "/><path style=" stroke:none;fill-rule:nonzero;fill:#ef299c;fill-opacity:1;" d="M 105.578125 151.265625 C 105.769531 152.226562 105.460938 153.265625 104.832031 154.003906 C 104.40625 154.480469 103.753906 154.6875 103.128906 154.667969 C 102.101562 154.660156 101.007812 153.800781 101.121094 152.679688 C 101.238281 151.835938 102.050781 151.417969 102.785156 151.886719 C 103.160156 152.117188 103.453125 152.4375 103.695312 152.792969 C 103.808594 152.953125 103.921875 153.1875 103.992188 153.390625 C 104.421875 154.78125 104.023438 156.375 103.140625 157.503906 C 102.425781 158.417969 101.261719 158.777344 100.199219 158.238281 C 99.832031 158.078125 99.53125 157.757812 99.40625 157.378906 C 99.242188 156.890625 99.351562 156.238281 99.875 155.992188 C 100.070312 155.90625 100.324219 155.953125 100.476562 156.105469 C 100.765625 156.40625 100.742188 156.8125 100.609375 157.15625 C 100.121094 158.148438 98.945312 158.574219 97.921875 158.589844 C 97.667969 158.585938 97.414062 158.554688 97.167969 158.5 C 97.167969 158.5 97.175781 158.453125 97.175781 158.453125 C 98.144531 158.59375 99.203125 158.332031 99.925781 157.652344 C 100.183594 157.402344 100.433594 157.078125 100.410156 156.703125 C 100.402344 156.554688 100.359375 156.398438 100.238281 156.316406 C 100.050781 156.195312 99.84375 156.367188 99.765625 156.546875 C 99.550781 156.996094 99.78125 157.5625 100.199219 157.800781 C 100.625 158.035156 101.128906 158.15625 101.609375 158.035156 C 103.21875 157.617188 103.980469 155.207031 103.621094 153.714844 C 103.507812 153.230469 103.207031 152.8125 102.851562 152.476562 C 102.5 152.136719 101.960938 151.898438 101.636719 152.402344 C 101.363281 152.824219 101.550781 153.390625 101.859375 153.742188 C 102.511719 154.488281 103.761719 154.566406 104.53125 153.960938 C 105.269531 153.316406 105.636719 152.25 105.535156 151.273438 C 105.535156 151.273438 105.582031 151.265625 105.582031 151.265625 Z M 105.578125 151.265625 "/><g clip-rule="nonzero" clip-path="url(#197d791040)"><path style=" stroke:none;fill-rule:nonzero;fill:#7d6bbd;fill-opacity:1;" d="M 82.410156 149.699219 C 82.121094 150.46875 82.234375 151.332031 82.5625 152.066406 C 82.917969 152.863281 83.6875 153.953125 84.601562 154.019531 C 84.921875 154.039062 85.351562 153.78125 85.289062 153.417969 C 85.109375 152.867188 84.230469 152.761719 83.800781 153.039062 C 83.386719 153.277344 83.375 153.820312 83.5 154.25 C 83.554688 154.429688 83.640625 154.613281 83.703125 154.789062 C 84.34375 156.261719 85.503906 157.492188 86.808594 158.410156 C 87.480469 158.882812 88.210938 159.273438 88.980469 159.597656 C 88.980469 159.597656 88.96875 159.644531 88.96875 159.644531 C 87.367188 159.15625 85.894531 158.257812 84.730469 157.042969 C 84.089844 156.355469 83.535156 155.558594 83.1875 154.675781 C 83.058594 154.382812 82.980469 154.066406 82.984375 153.742188 C 82.972656 152.742188 83.925781 152.25 84.808594 152.496094 C 85.828125 152.761719 86.113281 153.902344 85.046875 154.347656 C 84.191406 154.644531 83.398438 153.917969 82.925781 153.269531 C 82.203125 152.261719 81.796875 150.851562 82.367188 149.679688 C 82.367188 149.679688 82.410156 149.699219 82.410156 149.699219 Z M 82.410156 149.699219 "/></g><g clip-rule="nonzero" clip-path="url(#90359aae95)"><path style=" stroke:none;fill-rule:nonzero;fill:#7d6bbd;fill-opacity:1;" d="M 92.484375 159.425781 C 92.484375 159.507812 92.441406 159.550781 92.359375 159.550781 C 92.28125 159.550781 92.238281 159.507812 92.238281 159.425781 C 92.238281 159.34375 92.28125 159.304688 92.359375 159.304688 C 92.441406 159.304688 92.484375 159.34375 92.484375 159.425781 Z M 92.484375 159.425781 "/></g><path style=" stroke:none;fill-rule:nonzero;fill:#7d6bbd;fill-opacity:1;" d="M 81.816406 152.589844 C 81.816406 152.667969 81.789062 152.730469 81.734375 152.785156 C 81.683594 152.839844 81.617188 152.867188 81.542969 152.867188 C 81.464844 152.867188 81.402344 152.839844 81.347656 152.785156 C 81.296875 152.730469 81.269531 152.667969 81.269531 152.589844 C 81.269531 152.515625 81.296875 152.449219 81.347656 152.394531 C 81.402344 152.34375 81.464844 152.316406 81.542969 152.316406 C 81.617188 152.316406 81.683594 152.34375 81.734375 152.394531 C 81.789062 152.449219 81.816406 152.515625 81.816406 152.589844 Z M 81.816406 152.589844 "/><path style=" stroke:none;fill-rule:nonzero;fill:#f46c1f;fill-opacity:1;" d="M 82.003906 149.21875 C 82.003906 149.34375 81.941406 149.40625 81.820312 149.40625 C 81.695312 149.40625 81.632812 149.34375 81.632812 149.21875 C 81.632812 149.09375 81.695312 149.027344 81.820312 149.027344 C 81.941406 149.027344 82.003906 149.09375 82.003906 149.21875 Z M 82.003906 149.21875 "/><path style=" stroke:none;fill-rule:nonzero;fill:#ef299c;fill-opacity:1;" d="M 81.144531 141.867188 C 81.144531 141.933594 81.113281 141.964844 81.046875 141.964844 C 80.984375 141.964844 80.953125 141.933594 80.953125 141.867188 C 80.953125 141.804688 80.984375 141.769531 81.046875 141.769531 C 81.113281 141.769531 81.144531 141.804688 81.144531 141.867188 Z M 81.144531 141.867188 "/><path style=" stroke:none;fill-rule:nonzero;fill:#6ccfed;fill-opacity:1;" d="M 90.554688 156.625 C 90.554688 156.683594 90.523438 156.714844 90.464844 156.714844 C 90.40625 156.714844 90.375 156.683594 90.375 156.625 C 90.375 156.5625 90.40625 156.535156 90.464844 156.535156 C 90.523438 156.535156 90.554688 156.5625 90.554688 156.625 Z M 90.554688 156.625 "/><path style=" stroke:none;fill-rule:nonzero;fill:#6ccfed;fill-opacity:1;" d="M 88.917969 143.132812 C 88.917969 143.261719 88.855469 143.324219 88.730469 143.324219 C 88.605469 143.324219 88.542969 143.261719 88.542969 143.132812 C 88.542969 143.007812 88.605469 142.945312 88.730469 142.945312 C 88.855469 142.945312 88.917969 143.007812 88.917969 143.132812 Z M 88.917969 143.132812 "/><path style=" stroke:none;fill-rule:nonzero;fill:#7d6bbd;fill-opacity:1;" d="M 89.78125 136.464844 C 89.78125 136.535156 89.753906 136.597656 89.703125 136.648438 C 89.652344 136.699219 89.59375 136.726562 89.523438 136.726562 C 89.449219 136.726562 89.390625 136.699219 89.339844 136.648438 C 89.289062 136.597656 89.265625 136.535156 89.265625 136.464844 C 89.265625 136.394531 89.289062 136.332031 89.339844 136.28125 C 89.390625 136.230469 89.449219 136.203125 89.523438 136.203125 C 89.59375 136.203125 89.652344 136.230469 89.703125 136.28125 C 89.753906 136.332031 89.78125 136.394531 89.78125 136.464844 Z M 89.78125 136.464844 "/><path style=" stroke:none;fill-rule:nonzero;fill:#f46c1f;fill-opacity:1;" d="M 88.9375 131.035156 C 88.9375 131.132812 88.886719 131.179688 88.792969 131.179688 C 88.699219 131.179688 88.652344 131.132812 88.652344 131.035156 C 88.652344 130.941406 88.699219 130.894531 88.792969 130.894531 C 88.886719 130.894531 88.9375 130.941406 88.9375 131.035156 Z M 88.9375 131.035156 "/><path style=" stroke:none;fill-rule:nonzero;fill:#7d6bbd;fill-opacity:1;" d="M 94.101562 155.054688 C 94.101562 155.164062 94.046875 155.222656 93.9375 155.222656 C 93.824219 155.222656 93.769531 155.164062 93.769531 155.054688 C 93.769531 154.941406 93.824219 154.886719 93.9375 154.886719 C 94.046875 154.886719 94.101562 154.941406 94.101562 155.054688 Z M 94.101562 155.054688 "/><path style=" stroke:none;fill-rule:nonzero;fill:#6ccfed;fill-opacity:1;" d="M 95.226562 145.515625 C 95.226562 145.566406 95.199219 145.59375 95.148438 145.59375 C 95.09375 145.59375 95.066406 145.566406 95.066406 145.515625 C 95.066406 145.460938 95.09375 145.433594 95.148438 145.433594 C 95.199219 145.433594 95.226562 145.460938 95.226562 145.515625 Z M 95.226562 145.515625 "/><path style=" stroke:none;fill-rule:nonzero;fill:#f46c1f;fill-opacity:1;" d="M 99.085938 138 C 99.085938 138.085938 99.054688 138.15625 98.996094 138.214844 C 98.9375 138.277344 98.863281 138.304688 98.78125 138.304688 C 98.699219 138.304688 98.625 138.277344 98.566406 138.214844 C 98.507812 138.15625 98.476562 138.085938 98.476562 138 C 98.476562 137.914062 98.507812 137.84375 98.566406 137.785156 C 98.625 137.722656 98.699219 137.695312 98.78125 137.695312 C 98.863281 137.695312 98.9375 137.722656 98.996094 137.785156 C 99.054688 137.84375 99.085938 137.914062 99.085938 138 Z M 99.085938 138 "/><path style=" stroke:none;fill-rule:nonzero;fill:#7d6bbd;fill-opacity:1;" d="M 96.394531 157.640625 C 96.394531 157.757812 96.335938 157.820312 96.21875 157.820312 C 96.101562 157.820312 96.042969 157.757812 96.042969 157.640625 C 96.042969 157.519531 96.101562 157.460938 96.21875 157.460938 C 96.335938 157.460938 96.394531 157.519531 96.394531 157.640625 Z M 96.394531 157.640625 "/><path style=" stroke:none;fill-rule:nonzero;fill:#ef299c;fill-opacity:1;" d="M 101.480469 150.144531 C 101.480469 150.273438 101.417969 150.335938 101.292969 150.335938 C 101.167969 150.335938 101.105469 150.273438 101.105469 150.144531 C 101.105469 150.019531 101.167969 149.953125 101.292969 149.953125 C 101.417969 149.953125 101.480469 150.019531 101.480469 150.144531 Z M 101.480469 150.144531 "/><path style=" stroke:none;fill-rule:nonzero;fill:#6ccfed;fill-opacity:1;" d="M 105.855469 146.488281 C 105.855469 146.585938 105.808594 146.632812 105.714844 146.632812 C 105.617188 146.632812 105.570312 146.585938 105.570312 146.488281 C 105.570312 146.390625 105.617188 146.34375 105.714844 146.34375 C 105.808594 146.34375 105.855469 146.390625 105.855469 146.488281 Z M 105.855469 146.488281 "/><path style=" stroke:none;fill-rule:nonzero;fill:#6ccfed;fill-opacity:1;" d="M 107.582031 138.433594 C 107.582031 138.523438 107.550781 138.605469 107.484375 138.667969 C 107.421875 138.734375 107.34375 138.765625 107.253906 138.765625 C 107.160156 138.765625 107.082031 138.734375 107.019531 138.667969 C 106.957031 138.605469 106.921875 138.523438 106.921875 138.433594 C 106.921875 138.339844 106.957031 138.261719 107.019531 138.199219 C 107.082031 138.132812 107.160156 138.101562 107.253906 138.101562 C 107.34375 138.101562 107.421875 138.132812 107.484375 138.199219 C 107.550781 138.261719 107.582031 138.339844 107.582031 138.433594 Z M 107.582031 138.433594 "/><path style=" stroke:none;fill-rule:nonzero;fill:#ef299c;fill-opacity:1;" d="M 87.339844 150.289062 C 87.339844 150.433594 87.269531 150.503906 87.125 150.503906 C 86.984375 150.503906 86.914062 150.433594 86.914062 150.289062 C 86.914062 150.144531 86.984375 150.074219 87.125 150.074219 C 87.269531 150.074219 87.339844 150.144531 87.339844 150.289062 Z M 87.339844 150.289062 "/><path style=" stroke:none;fill-rule:nonzero;fill:#f46c1f;fill-opacity:1;" d="M 87.234375 137.25 C 87.234375 137.308594 87.203125 137.335938 87.148438 137.335938 C 87.09375 137.335938 87.0625 137.308594 87.0625 137.25 C 87.0625 137.195312 87.09375 137.164062 87.148438 137.164062 C 87.203125 137.164062 87.234375 137.195312 87.234375 137.25 Z M 87.234375 137.25 "/><path style=" stroke:none;fill-rule:nonzero;fill:#7d6bbd;fill-opacity:1;" d="M 90.625 154.082031 L 90.867188 154.835938 L 91.652344 154.835938 L 91.015625 155.300781 L 91.261719 156.054688 L 90.625 155.589844 L 89.992188 156.054688 L 90.234375 155.300781 L 89.597656 154.835938 L 90.382812 154.835938 Z M 90.625 154.082031 "/><g clip-rule="nonzero" clip-path="url(#ccc3158cca)"><path style=" stroke:none;fill-rule:nonzero;fill:#6ccfed;fill-opacity:1;" d="M 77.210938 143.902344 L 77.441406 144.625 L 78.195312 144.625 L 77.585938 145.070312 L 77.820312 145.792969 L 77.210938 145.347656 L 76.601562 145.792969 L 76.835938 145.070312 L 76.226562 144.625 L 76.976562 144.625 Z M 77.210938 143.902344 "/></g><path style=" stroke:none;fill-rule:nonzero;fill:#ef299c;fill-opacity:1;" d="M 98.925781 132.855469 L 99.023438 133.15625 L 99.335938 133.15625 L 99.082031 133.34375 L 99.179688 133.644531 L 98.925781 133.460938 L 98.671875 133.644531 L 98.769531 133.34375 L 98.515625 133.15625 L 98.828125 133.15625 Z M 98.925781 132.855469 "/><path style=" stroke:none;fill-rule:nonzero;fill:#7d6bbd;fill-opacity:1;" d="M 86.792969 133.570312 L 86.875 133.820312 L 87.132812 133.820312 L 86.925781 133.972656 L 87.003906 134.222656 L 86.792969 134.070312 L 86.585938 134.222656 L 86.664062 133.972656 L 86.453125 133.820312 L 86.714844 133.820312 Z M 86.792969 133.570312 "/><path style=" stroke:none;fill-rule:nonzero;fill:#f46c1f;fill-opacity:1;" d="M 94.863281 150.507812 L 95.011719 150.96875 L 95.496094 150.96875 L 95.105469 151.257812 L 95.253906 151.71875 L 94.863281 151.433594 L 94.472656 151.71875 L 94.621094 151.257812 L 94.230469 150.96875 L 94.714844 150.96875 Z M 94.863281 150.507812 "/><path style=" stroke:none;fill-rule:nonzero;fill:#6ccfed;fill-opacity:1;" d="M 107.5625 142.765625 L 107.847656 143.644531 L 108.761719 143.644531 L 108.023438 144.1875 L 108.304688 145.066406 L 107.5625 144.523438 L 106.824219 145.066406 L 107.105469 144.1875 L 106.367188 143.644531 L 107.28125 143.644531 Z M 107.5625 142.765625 "/><path style=" stroke:none;fill-rule:nonzero;fill:#7d6bbd;fill-opacity:1;" d="M 107.519531 155.539062 L 107.808594 156.441406 L 108.746094 156.441406 L 107.988281 156.996094 L 108.277344 157.894531 L 107.519531 157.339844 L 106.761719 157.894531 L 107.050781 156.996094 L 106.292969 156.441406 L 107.230469 156.441406 Z M 107.519531 155.539062 "/><path style=" stroke:none;fill-rule:nonzero;fill:#f46c1f;fill-opacity:1;" d="M 87.949219 155.675781 C 87.921875 155.703125 87.902344 155.730469 87.886719 155.761719 C 87.867188 155.792969 87.851562 155.824219 87.839844 155.855469 C 87.835938 155.875 87.832031 155.890625 87.828125 155.910156 C 87.824219 155.917969 87.824219 155.925781 87.824219 155.933594 C 87.824219 155.941406 87.824219 155.945312 87.820312 155.949219 C 87.820312 155.964844 87.820312 155.984375 87.820312 156 C 87.820312 156.011719 87.820312 156.023438 87.824219 156.035156 C 87.828125 156.042969 87.832031 156.050781 87.835938 156.054688 C 87.84375 156.066406 87.855469 156.074219 87.871094 156.078125 C 87.882812 156.082031 87.898438 156.082031 87.910156 156.078125 C 87.925781 156.074219 87.9375 156.0625 87.949219 156.054688 C 87.957031 156.042969 87.964844 156.027344 87.96875 156.015625 C 87.972656 156.011719 87.972656 156.007812 87.972656 156.003906 C 87.976562 155.992188 87.972656 155.984375 87.972656 155.972656 C 87.972656 155.964844 87.972656 155.953125 87.972656 155.941406 C 87.972656 155.9375 87.972656 155.933594 87.972656 155.929688 C 87.972656 155.925781 87.972656 155.925781 87.96875 155.921875 C 87.960938 155.914062 87.953125 155.910156 87.945312 155.910156 C 87.9375 155.90625 87.929688 155.902344 87.921875 155.902344 C 87.90625 155.898438 87.890625 155.898438 87.871094 155.898438 C 87.839844 155.902344 87.808594 155.917969 87.785156 155.941406 C 87.757812 155.964844 87.742188 155.992188 87.730469 156.023438 C 87.71875 156.058594 87.710938 156.097656 87.707031 156.136719 C 87.707031 156.148438 87.707031 156.15625 87.703125 156.167969 C 87.703125 156.171875 87.703125 156.171875 87.703125 156.175781 C 87.703125 156.183594 87.703125 156.1875 87.703125 156.195312 C 87.703125 156.203125 87.703125 156.207031 87.703125 156.214844 C 87.703125 156.21875 87.703125 156.222656 87.703125 156.222656 C 87.707031 156.1875 87.710938 156.15625 87.71875 156.121094 C 87.726562 156.09375 87.734375 156.0625 87.75 156.035156 C 87.765625 156.011719 87.785156 155.992188 87.808594 155.976562 C 87.832031 155.960938 87.863281 155.953125 87.890625 155.953125 C 87.90625 155.953125 87.917969 155.957031 87.933594 155.960938 C 87.941406 155.960938 87.949219 155.964844 87.953125 155.96875 C 87.960938 155.972656 87.964844 155.976562 87.96875 155.980469 C 87.972656 155.984375 87.972656 155.988281 87.972656 155.992188 C 87.972656 156 87.972656 155.992188 87.972656 155.964844 C 87.972656 155.941406 87.972656 155.933594 87.972656 155.941406 C 87.972656 155.972656 87.953125 156.003906 87.925781 156.015625 C 87.898438 156.03125 87.867188 156.027344 87.84375 156.007812 C 87.828125 155.996094 87.824219 155.980469 87.820312 155.960938 C 87.820312 155.941406 87.820312 156.019531 87.820312 156.003906 C 87.820312 156.003906 87.820312 156 87.820312 156 C 87.824219 155.980469 87.828125 155.960938 87.832031 155.941406 C 87.835938 155.921875 87.84375 155.90625 87.851562 155.886719 C 87.863281 155.847656 87.882812 155.816406 87.90625 155.78125 C 87.917969 155.761719 87.933594 155.746094 87.945312 155.730469 C 87.945312 155.730469 87.945312 155.722656 87.945312 155.722656 C 87.945312 155.714844 87.945312 155.707031 87.945312 155.703125 C 87.945312 155.695312 87.945312 155.6875 87.945312 155.683594 L 87.945312 155.679688 C 87.945312 155.679688 87.945312 155.675781 87.945312 155.675781 Z M 87.949219 155.675781 "/><path style=" stroke:none;fill-rule:nonzero;fill:#7d6bbd;fill-opacity:1;" d="M 78.304688 149.367188 C 78.285156 149.386719 78.269531 149.410156 78.257812 149.429688 C 78.246094 149.453125 78.234375 149.476562 78.226562 149.503906 C 78.222656 149.515625 78.21875 149.527344 78.214844 149.539062 C 78.214844 149.546875 78.214844 149.554688 78.210938 149.5625 C 78.210938 149.5625 78.210938 149.566406 78.210938 149.570312 C 78.210938 149.582031 78.210938 149.597656 78.210938 149.609375 C 78.210938 149.617188 78.210938 149.628906 78.214844 149.636719 C 78.214844 149.640625 78.21875 149.644531 78.222656 149.648438 C 78.226562 149.65625 78.238281 149.664062 78.246094 149.667969 C 78.257812 149.667969 78.269531 149.671875 78.277344 149.667969 C 78.289062 149.664062 78.296875 149.65625 78.304688 149.648438 C 78.3125 149.640625 78.316406 149.628906 78.320312 149.621094 C 78.320312 149.617188 78.324219 149.613281 78.324219 149.613281 C 78.324219 149.605469 78.324219 149.597656 78.324219 149.589844 C 78.324219 149.582031 78.324219 149.574219 78.324219 149.566406 C 78.324219 149.5625 78.324219 149.5625 78.324219 149.558594 C 78.324219 149.558594 78.320312 149.554688 78.320312 149.550781 C 78.3125 149.546875 78.308594 149.546875 78.304688 149.542969 C 78.296875 149.539062 78.292969 149.539062 78.285156 149.539062 C 78.273438 149.535156 78.261719 149.535156 78.25 149.535156 C 78.222656 149.539062 78.199219 149.546875 78.183594 149.566406 C 78.164062 149.582031 78.152344 149.605469 78.144531 149.628906 C 78.132812 149.65625 78.128906 149.683594 78.125 149.710938 C 78.125 149.71875 78.125 149.726562 78.125 149.734375 C 78.125 149.734375 78.125 149.738281 78.125 149.738281 C 78.125 149.746094 78.125 149.75 78.125 149.753906 C 78.125 149.757812 78.125 149.761719 78.125 149.765625 C 78.125 149.769531 78.125 149.769531 78.125 149.773438 C 78.128906 149.746094 78.128906 149.722656 78.136719 149.699219 C 78.140625 149.675781 78.148438 149.65625 78.160156 149.636719 C 78.167969 149.617188 78.183594 149.601562 78.203125 149.589844 C 78.21875 149.582031 78.242188 149.574219 78.261719 149.574219 C 78.273438 149.574219 78.285156 149.574219 78.292969 149.578125 C 78.300781 149.582031 78.304688 149.582031 78.308594 149.582031 C 78.3125 149.585938 78.316406 149.589844 78.320312 149.59375 C 78.324219 149.597656 78.324219 149.597656 78.324219 149.601562 C 78.324219 149.605469 78.324219 149.601562 78.324219 149.582031 C 78.324219 149.5625 78.324219 149.558594 78.324219 149.5625 C 78.320312 149.585938 78.308594 149.609375 78.285156 149.617188 C 78.265625 149.628906 78.242188 149.625 78.226562 149.613281 C 78.214844 149.605469 78.210938 149.59375 78.210938 149.578125 C 78.210938 149.5625 78.210938 149.621094 78.210938 149.613281 C 78.210938 149.609375 78.210938 149.609375 78.210938 149.609375 C 78.210938 149.59375 78.214844 149.578125 78.21875 149.5625 C 78.222656 149.550781 78.226562 149.535156 78.230469 149.523438 C 78.242188 149.496094 78.257812 149.46875 78.273438 149.445312 C 78.28125 149.433594 78.292969 149.421875 78.304688 149.410156 C 78.304688 149.410156 78.304688 149.402344 78.304688 149.402344 C 78.304688 149.398438 78.304688 149.394531 78.304688 149.390625 C 78.304688 149.382812 78.304688 149.378906 78.304688 149.375 Z M 78.304688 149.367188 "/><path style=" stroke:none;fill-rule:nonzero;fill:#f46c1f;fill-opacity:1;" d="M 80.082031 135.671875 C 80.046875 135.714844 80.015625 135.757812 79.988281 135.800781 C 79.960938 135.847656 79.9375 135.898438 79.921875 135.949219 C 79.914062 135.972656 79.90625 136 79.902344 136.027344 C 79.898438 136.039062 79.894531 136.054688 79.894531 136.066406 C 79.890625 136.074219 79.890625 136.082031 79.890625 136.089844 C 79.886719 136.117188 79.890625 136.140625 79.890625 136.167969 C 79.890625 136.1875 79.890625 136.203125 79.898438 136.222656 C 79.902344 136.230469 79.90625 136.242188 79.914062 136.25 C 79.925781 136.265625 79.945312 136.277344 79.964844 136.28125 C 79.984375 136.289062 80.007812 136.289062 80.027344 136.285156 C 80.050781 136.277344 80.070312 136.265625 80.085938 136.246094 C 80.101562 136.230469 80.113281 136.210938 80.117188 136.1875 C 80.121094 136.183594 80.121094 136.175781 80.125 136.171875 C 80.125 136.15625 80.125 136.140625 80.125 136.125 C 80.125 136.109375 80.125 136.09375 80.125 136.074219 C 80.125 136.070312 80.125 136.066406 80.125 136.0625 C 80.121094 136.054688 80.121094 136.050781 80.117188 136.046875 C 80.105469 136.039062 80.09375 136.03125 80.082031 136.027344 C 80.070312 136.023438 80.058594 136.019531 80.046875 136.015625 C 80.023438 136.011719 79.996094 136.011719 79.972656 136.011719 C 79.921875 136.019531 79.871094 136.039062 79.835938 136.074219 C 79.800781 136.109375 79.773438 136.152344 79.757812 136.203125 C 79.734375 136.257812 79.726562 136.316406 79.722656 136.375 C 79.71875 136.390625 79.71875 136.40625 79.714844 136.421875 C 79.714844 136.425781 79.714844 136.429688 79.714844 136.433594 C 79.714844 136.445312 79.714844 136.453125 79.714844 136.464844 C 79.714844 136.472656 79.714844 136.484375 79.714844 136.492188 C 79.714844 136.496094 79.714844 136.5 79.714844 136.503906 C 79.722656 136.453125 79.726562 136.402344 79.738281 136.351562 C 79.746094 136.304688 79.761719 136.261719 79.789062 136.21875 C 79.808594 136.183594 79.839844 136.148438 79.875 136.128906 C 79.914062 136.105469 79.957031 136.09375 80 136.09375 C 80.023438 136.09375 80.042969 136.097656 80.066406 136.105469 C 80.074219 136.109375 80.085938 136.113281 80.09375 136.117188 C 80.105469 136.121094 80.113281 136.128906 80.121094 136.136719 C 80.121094 136.140625 80.125 136.144531 80.125 136.152344 L 80.125 136.148438 C 80.125 136.164062 80.125 136.152344 80.125 136.113281 C 80.125 136.078125 80.125 136.0625 80.125 136.078125 L 80.125 136.074219 C 80.121094 136.121094 80.089844 136.167969 80.050781 136.1875 C 80.007812 136.210938 79.960938 136.203125 79.925781 136.175781 C 79.90625 136.15625 79.894531 136.132812 79.890625 136.105469 L 79.890625 136.109375 C 79.890625 136.074219 79.890625 136.195312 79.890625 136.171875 C 79.890625 136.171875 79.890625 136.167969 79.890625 136.167969 C 79.894531 136.136719 79.902344 136.105469 79.910156 136.078125 C 79.917969 136.046875 79.925781 136.019531 79.9375 135.992188 C 79.957031 135.9375 79.984375 135.882812 80.019531 135.832031 C 80.039062 135.804688 80.058594 135.78125 80.082031 135.753906 C 80.082031 135.753906 80.082031 135.742188 80.082031 135.742188 C 80.082031 135.730469 80.082031 135.722656 80.082031 135.710938 C 80.082031 135.703125 80.082031 135.691406 80.082031 135.683594 L 80.082031 135.675781 C 80.082031 135.675781 80.082031 135.671875 80.082031 135.671875 Z M 80.082031 135.671875 "/><path style=" stroke:none;fill-rule:nonzero;fill:#7d6bbd;fill-opacity:1;" d="M 95.984375 139.636719 C 95.933594 139.691406 95.886719 139.757812 95.847656 139.824219 C 95.808594 139.890625 95.773438 139.964844 95.75 140.039062 C 95.738281 140.074219 95.726562 140.113281 95.71875 140.152344 C 95.714844 140.171875 95.710938 140.191406 95.707031 140.210938 C 95.707031 140.222656 95.707031 140.234375 95.703125 140.246094 C 95.703125 140.28125 95.703125 140.320312 95.703125 140.359375 C 95.703125 140.386719 95.703125 140.410156 95.714844 140.4375 C 95.71875 140.453125 95.726562 140.464844 95.738281 140.476562 C 95.757812 140.5 95.785156 140.519531 95.8125 140.527344 C 95.84375 140.535156 95.875 140.539062 95.90625 140.53125 C 95.9375 140.519531 95.96875 140.5 95.988281 140.476562 C 96.011719 140.453125 96.03125 140.421875 96.039062 140.390625 C 96.042969 140.382812 96.042969 140.371094 96.046875 140.363281 C 96.050781 140.34375 96.046875 140.320312 96.046875 140.300781 C 96.046875 140.273438 96.046875 140.25 96.046875 140.222656 C 96.046875 140.21875 96.046875 140.210938 96.046875 140.207031 C 96.042969 140.195312 96.039062 140.1875 96.03125 140.183594 C 96.019531 140.167969 96 140.164062 95.984375 140.15625 C 95.96875 140.148438 95.949219 140.144531 95.933594 140.140625 C 95.894531 140.128906 95.859375 140.128906 95.820312 140.132812 C 95.746094 140.140625 95.675781 140.171875 95.625 140.226562 C 95.570312 140.277344 95.53125 140.339844 95.507812 140.410156 C 95.476562 140.492188 95.464844 140.578125 95.457031 140.667969 C 95.453125 140.6875 95.449219 140.710938 95.449219 140.730469 C 95.449219 140.738281 95.449219 140.742188 95.449219 140.75 C 95.449219 140.765625 95.449219 140.777344 95.449219 140.792969 C 95.449219 140.808594 95.449219 140.820312 95.449219 140.835938 C 95.449219 140.84375 95.449219 140.847656 95.449219 140.855469 C 95.457031 140.777344 95.464844 140.703125 95.480469 140.628906 C 95.496094 140.558594 95.519531 140.496094 95.550781 140.4375 C 95.585938 140.382812 95.628906 140.335938 95.679688 140.304688 C 95.734375 140.269531 95.800781 140.253906 95.863281 140.253906 C 95.894531 140.253906 95.925781 140.257812 95.957031 140.269531 C 95.972656 140.273438 95.988281 140.277344 96 140.285156 C 96.015625 140.292969 96.03125 140.300781 96.039062 140.3125 C 96.042969 140.320312 96.042969 140.328125 96.046875 140.335938 C 96.046875 140.355469 96.046875 140.339844 96.046875 140.28125 C 96.046875 140.226562 96.046875 140.210938 96.046875 140.230469 L 96.046875 140.226562 C 96.039062 140.296875 95.996094 140.363281 95.9375 140.394531 C 95.875 140.425781 95.804688 140.417969 95.753906 140.375 C 95.722656 140.351562 95.707031 140.3125 95.703125 140.273438 L 95.703125 140.277344 C 95.699219 140.226562 95.703125 140.402344 95.703125 140.371094 C 95.703125 140.367188 95.703125 140.363281 95.703125 140.359375 L 95.703125 140.363281 C 95.707031 140.316406 95.71875 140.269531 95.730469 140.226562 C 95.738281 140.183594 95.753906 140.144531 95.769531 140.105469 C 95.800781 140.023438 95.84375 139.945312 95.890625 139.871094 C 95.921875 139.832031 95.953125 139.792969 95.984375 139.757812 C 95.984375 139.757812 95.984375 139.738281 95.984375 139.738281 C 95.984375 139.726562 95.984375 139.710938 95.984375 139.695312 C 95.984375 139.683594 95.984375 139.667969 95.984375 139.652344 L 95.984375 139.644531 C 95.984375 139.644531 95.984375 139.636719 95.984375 139.636719 Z M 95.984375 139.636719 "/><path style=" stroke:none;fill-rule:nonzero;fill:#ef299c;fill-opacity:1;" d="M 89.285156 146.261719 C 89.265625 146.285156 89.246094 146.308594 89.230469 146.335938 C 89.21875 146.359375 89.203125 146.386719 89.195312 146.414062 C 89.191406 146.429688 89.1875 146.441406 89.183594 146.457031 C 89.183594 146.464844 89.179688 146.472656 89.179688 146.480469 C 89.179688 146.484375 89.179688 146.488281 89.179688 146.492188 C 89.179688 146.507812 89.179688 146.523438 89.179688 146.535156 C 89.179688 146.546875 89.179688 146.554688 89.183594 146.566406 C 89.183594 146.570312 89.1875 146.578125 89.191406 146.582031 C 89.199219 146.589844 89.207031 146.597656 89.21875 146.597656 C 89.230469 146.601562 89.242188 146.601562 89.253906 146.597656 C 89.265625 146.59375 89.277344 146.589844 89.285156 146.578125 C 89.292969 146.570312 89.300781 146.558594 89.304688 146.546875 C 89.304688 146.542969 89.304688 146.539062 89.304688 146.539062 C 89.308594 146.527344 89.304688 146.519531 89.304688 146.511719 C 89.304688 146.503906 89.304688 146.496094 89.304688 146.484375 C 89.304688 146.484375 89.304688 146.480469 89.304688 146.476562 C 89.304688 146.472656 89.304688 146.472656 89.300781 146.46875 C 89.296875 146.464844 89.289062 146.460938 89.28125 146.457031 C 89.277344 146.457031 89.269531 146.453125 89.261719 146.453125 C 89.25 146.449219 89.234375 146.449219 89.222656 146.449219 C 89.191406 146.453125 89.167969 146.464844 89.148438 146.484375 C 89.125 146.503906 89.113281 146.527344 89.105469 146.554688 C 89.09375 146.585938 89.085938 146.617188 89.085938 146.648438 C 89.085938 146.660156 89.082031 146.667969 89.082031 146.675781 C 89.082031 146.675781 89.082031 146.679688 89.082031 146.679688 C 89.082031 146.6875 89.082031 146.691406 89.082031 146.695312 C 89.082031 146.703125 89.082031 146.707031 89.082031 146.714844 C 89.082031 146.714844 89.082031 146.71875 89.082031 146.71875 C 89.085938 146.691406 89.085938 146.664062 89.09375 146.636719 C 89.097656 146.609375 89.109375 146.585938 89.121094 146.5625 C 89.132812 146.542969 89.148438 146.527344 89.171875 146.511719 C 89.191406 146.5 89.214844 146.492188 89.238281 146.492188 C 89.25 146.492188 89.261719 146.496094 89.273438 146.5 C 89.28125 146.5 89.285156 146.503906 89.292969 146.507812 C 89.296875 146.507812 89.300781 146.511719 89.304688 146.515625 C 89.308594 146.519531 89.308594 146.523438 89.308594 146.523438 C 89.308594 146.53125 89.308594 146.523438 89.308594 146.503906 C 89.308594 146.484375 89.308594 146.476562 89.308594 146.484375 C 89.304688 146.511719 89.289062 146.535156 89.265625 146.546875 C 89.242188 146.558594 89.21875 146.554688 89.199219 146.539062 C 89.1875 146.53125 89.179688 146.515625 89.179688 146.5 C 89.179688 146.484375 89.179688 146.550781 89.179688 146.539062 C 89.179688 146.535156 89.179688 146.535156 89.179688 146.53125 C 89.179688 146.515625 89.183594 146.5 89.1875 146.484375 C 89.191406 146.464844 89.199219 146.453125 89.203125 146.4375 C 89.214844 146.40625 89.230469 146.375 89.25 146.347656 C 89.257812 146.335938 89.269531 146.320312 89.28125 146.304688 C 89.28125 146.304688 89.28125 146.300781 89.28125 146.300781 C 89.28125 146.292969 89.28125 146.289062 89.28125 146.28125 C 89.28125 146.277344 89.28125 146.269531 89.28125 146.265625 L 89.28125 146.261719 C 89.28125 146.261719 89.28125 146.261719 89.28125 146.257812 Z M 89.285156 146.261719 "/><g clip-rule="nonzero" clip-path="url(#eeda3c0529)"><path style=" stroke:none;fill-rule:nonzero;fill:#f46c1f;fill-opacity:1;" d="M 95.757812 127.433594 C 95.722656 127.472656 95.695312 127.511719 95.667969 127.554688 C 95.644531 127.597656 95.625 127.640625 95.609375 127.691406 C 95.601562 127.714844 95.59375 127.738281 95.589844 127.761719 C 95.585938 127.773438 95.582031 127.789062 95.582031 127.800781 C 95.582031 127.804688 95.582031 127.8125 95.582031 127.820312 C 95.578125 127.84375 95.582031 127.867188 95.582031 127.890625 C 95.582031 127.90625 95.582031 127.925781 95.585938 127.941406 C 95.589844 127.949219 95.59375 127.957031 95.601562 127.96875 C 95.613281 127.980469 95.628906 127.992188 95.648438 128 C 95.667969 128.007812 95.6875 128.007812 95.707031 128 C 95.726562 127.996094 95.746094 127.984375 95.761719 127.96875 C 95.777344 127.953125 95.785156 127.933594 95.792969 127.910156 C 95.792969 127.90625 95.796875 127.902344 95.796875 127.894531 C 95.796875 127.882812 95.796875 127.867188 95.796875 127.855469 C 95.796875 127.839844 95.796875 127.824219 95.796875 127.808594 C 95.796875 127.804688 95.796875 127.800781 95.796875 127.796875 C 95.796875 127.789062 95.792969 127.785156 95.789062 127.78125 C 95.78125 127.773438 95.769531 127.769531 95.757812 127.765625 C 95.75 127.761719 95.734375 127.753906 95.722656 127.753906 C 95.703125 127.75 95.675781 127.746094 95.65625 127.75 C 95.609375 127.753906 95.5625 127.777344 95.527344 127.808594 C 95.492188 127.839844 95.472656 127.882812 95.457031 127.925781 C 95.4375 127.976562 95.425781 128.03125 95.421875 128.089844 C 95.421875 128.101562 95.417969 128.117188 95.417969 128.128906 C 95.417969 128.132812 95.417969 128.136719 95.417969 128.140625 C 95.417969 128.152344 95.417969 128.160156 95.417969 128.167969 C 95.417969 128.179688 95.417969 128.1875 95.417969 128.195312 C 95.417969 128.199219 95.417969 128.203125 95.417969 128.207031 C 95.421875 128.160156 95.425781 128.113281 95.4375 128.0625 C 95.449219 128.023438 95.460938 127.980469 95.484375 127.941406 C 95.503906 127.910156 95.53125 127.878906 95.566406 127.859375 C 95.601562 127.835938 95.640625 127.824219 95.683594 127.828125 C 95.703125 127.828125 95.722656 127.832031 95.742188 127.835938 C 95.753906 127.839844 95.761719 127.84375 95.769531 127.847656 C 95.78125 127.851562 95.789062 127.855469 95.796875 127.863281 C 95.796875 127.871094 95.796875 127.875 95.800781 127.878906 C 95.800781 127.890625 95.800781 127.878906 95.800781 127.84375 C 95.800781 127.808594 95.800781 127.800781 95.800781 127.8125 C 95.796875 127.855469 95.769531 127.898438 95.730469 127.917969 C 95.691406 127.9375 95.648438 127.929688 95.613281 127.902344 C 95.597656 127.886719 95.585938 127.863281 95.582031 127.839844 C 95.582031 127.808594 95.582031 127.921875 95.582031 127.902344 C 95.582031 127.898438 95.582031 127.898438 95.582031 127.894531 C 95.585938 127.867188 95.59375 127.835938 95.597656 127.808594 C 95.605469 127.78125 95.613281 127.757812 95.625 127.730469 C 95.644531 127.679688 95.671875 127.628906 95.703125 127.585938 C 95.71875 127.558594 95.738281 127.535156 95.761719 127.511719 C 95.761719 127.511719 95.761719 127.5 95.761719 127.5 C 95.761719 127.492188 95.761719 127.480469 95.761719 127.472656 C 95.761719 127.460938 95.761719 127.453125 95.761719 127.445312 L 95.761719 127.4375 C 95.761719 127.4375 95.761719 127.433594 95.761719 127.433594 Z M 95.757812 127.433594 "/></g><g clip-rule="nonzero" clip-path="url(#37f9235ef0)"><path style=" stroke:none;fill-rule:nonzero;fill:#f46c1f;fill-opacity:1;" d="M 111.371094 153.851562 C 111.335938 153.886719 111.308594 153.925781 111.285156 153.96875 C 111.257812 154.007812 111.238281 154.054688 111.226562 154.101562 C 111.21875 154.125 111.210938 154.148438 111.207031 154.171875 C 111.203125 154.183594 111.199219 154.195312 111.199219 154.210938 C 111.195312 154.214844 111.195312 154.222656 111.195312 154.230469 C 111.195312 154.253906 111.195312 154.277344 111.195312 154.300781 C 111.195312 154.316406 111.195312 154.335938 111.203125 154.351562 C 111.207031 154.359375 111.210938 154.367188 111.214844 154.375 C 111.226562 154.390625 111.246094 154.402344 111.265625 154.40625 C 111.28125 154.410156 111.304688 154.414062 111.320312 154.40625 C 111.34375 154.402344 111.359375 154.390625 111.375 154.375 C 111.390625 154.359375 111.398438 154.339844 111.40625 154.320312 C 111.40625 154.3125 111.410156 154.308594 111.410156 154.304688 C 111.414062 154.289062 111.410156 154.277344 111.410156 154.261719 C 111.410156 154.246094 111.410156 154.230469 111.410156 154.214844 C 111.410156 154.210938 111.410156 154.207031 111.410156 154.207031 C 111.410156 154.199219 111.40625 154.195312 111.402344 154.191406 C 111.394531 154.183594 111.382812 154.179688 111.371094 154.171875 C 111.363281 154.167969 111.351562 154.167969 111.339844 154.164062 C 111.316406 154.160156 111.292969 154.15625 111.269531 154.160156 C 111.222656 154.164062 111.179688 154.183594 111.148438 154.21875 C 111.113281 154.25 111.089844 154.289062 111.074219 154.332031 C 111.054688 154.382812 111.046875 154.4375 111.042969 154.492188 C 111.042969 154.507812 111.039062 154.519531 111.039062 154.535156 C 111.039062 154.539062 111.039062 154.539062 111.039062 154.542969 C 111.039062 154.554688 111.039062 154.5625 111.039062 154.570312 C 111.039062 154.582031 111.039062 154.589844 111.039062 154.597656 C 111.039062 154.601562 111.039062 154.605469 111.039062 154.609375 C 111.042969 154.5625 111.046875 154.515625 111.058594 154.46875 C 111.066406 154.425781 111.082031 154.386719 111.105469 154.351562 C 111.125 154.316406 111.152344 154.285156 111.183594 154.265625 C 111.21875 154.242188 111.257812 154.234375 111.296875 154.234375 C 111.320312 154.234375 111.335938 154.238281 111.355469 154.242188 C 111.367188 154.246094 111.375 154.25 111.382812 154.253906 C 111.394531 154.261719 111.402344 154.265625 111.40625 154.273438 C 111.410156 154.277344 111.410156 154.28125 111.414062 154.289062 C 111.414062 154.300781 111.414062 154.289062 111.414062 154.253906 C 111.414062 154.21875 111.414062 154.207031 111.414062 154.222656 C 111.410156 154.261719 111.382812 154.304688 111.34375 154.324219 C 111.304688 154.34375 111.261719 154.335938 111.230469 154.3125 C 111.210938 154.296875 111.199219 154.273438 111.199219 154.25 C 111.195312 154.21875 111.195312 154.328125 111.199219 154.308594 C 111.199219 154.304688 111.199219 154.304688 111.199219 154.300781 C 111.199219 154.273438 111.207031 154.246094 111.214844 154.21875 C 111.222656 154.191406 111.230469 154.167969 111.238281 154.140625 C 111.257812 154.089844 111.285156 154.042969 111.316406 153.996094 C 111.332031 153.972656 111.351562 153.949219 111.371094 153.925781 C 111.371094 153.925781 111.371094 153.914062 111.371094 153.914062 C 111.371094 153.90625 111.371094 153.898438 111.371094 153.886719 C 111.371094 153.878906 111.371094 153.871094 111.371094 153.859375 L 111.371094 153.855469 C 111.371094 153.855469 111.371094 153.851562 111.371094 153.851562 Z M 111.371094 153.851562 "/></g><path style=" stroke:none;fill-rule:nonzero;fill:#ef299c;fill-opacity:1;" d="M 103.773438 146.617188 C 103.726562 146.667969 103.6875 146.726562 103.652344 146.785156 C 103.617188 146.84375 103.589844 146.90625 103.566406 146.972656 C 103.558594 147.003906 103.550781 147.039062 103.542969 147.070312 C 103.539062 147.089844 103.535156 147.105469 103.53125 147.125 C 103.53125 147.132812 103.527344 147.144531 103.527344 147.152344 C 103.527344 147.1875 103.527344 147.21875 103.527344 147.253906 C 103.527344 147.277344 103.527344 147.300781 103.535156 147.324219 C 103.542969 147.335938 103.550781 147.347656 103.558594 147.359375 C 103.574219 147.378906 103.597656 147.394531 103.625 147.402344 C 103.648438 147.410156 103.679688 147.410156 103.707031 147.402344 C 103.734375 147.394531 103.757812 147.378906 103.777344 147.359375 C 103.800781 147.335938 103.8125 147.308594 103.824219 147.28125 C 103.824219 147.273438 103.828125 147.265625 103.828125 147.257812 C 103.832031 147.242188 103.828125 147.222656 103.832031 147.203125 C 103.832031 147.179688 103.832031 147.15625 103.832031 147.136719 C 103.832031 147.128906 103.832031 147.125 103.828125 147.121094 C 103.828125 147.113281 103.824219 147.105469 103.816406 147.101562 C 103.804688 147.089844 103.789062 147.082031 103.773438 147.078125 C 103.761719 147.070312 103.746094 147.066406 103.726562 147.0625 C 103.695312 147.054688 103.664062 147.050781 103.628906 147.054688 C 103.566406 147.0625 103.503906 147.089844 103.457031 147.136719 C 103.410156 147.183594 103.378906 147.238281 103.355469 147.300781 C 103.328125 147.371094 103.316406 147.449219 103.308594 147.523438 C 103.308594 147.542969 103.304688 147.5625 103.304688 147.582031 C 103.304688 147.585938 103.304688 147.59375 103.304688 147.597656 C 103.304688 147.609375 103.304688 147.621094 103.304688 147.636719 C 103.304688 147.648438 103.304688 147.660156 103.304688 147.675781 C 103.304688 147.679688 103.304688 147.683594 103.304688 147.691406 C 103.308594 147.621094 103.316406 147.554688 103.332031 147.492188 C 103.34375 147.433594 103.363281 147.375 103.394531 147.324219 C 103.421875 147.277344 103.460938 147.234375 103.507812 147.207031 C 103.554688 147.175781 103.613281 147.160156 103.667969 147.164062 C 103.695312 147.164062 103.722656 147.167969 103.75 147.175781 C 103.765625 147.179688 103.777344 147.183594 103.789062 147.191406 C 103.800781 147.199219 103.8125 147.203125 103.820312 147.214844 C 103.824219 147.222656 103.828125 147.230469 103.828125 147.234375 C 103.828125 147.25 103.828125 147.234375 103.828125 147.1875 C 103.828125 147.140625 103.828125 147.125 103.828125 147.140625 C 103.824219 147.199219 103.785156 147.257812 103.730469 147.285156 C 103.679688 147.3125 103.617188 147.304688 103.574219 147.269531 C 103.546875 147.246094 103.53125 147.214844 103.527344 147.179688 C 103.523438 147.136719 103.527344 147.289062 103.527344 147.265625 C 103.527344 147.261719 103.527344 147.257812 103.527344 147.253906 C 103.53125 147.214844 103.539062 147.175781 103.550781 147.136719 C 103.558594 147.101562 103.570312 147.066406 103.585938 147.027344 C 103.613281 146.957031 103.648438 146.890625 103.691406 146.824219 C 103.71875 146.789062 103.742188 146.757812 103.773438 146.726562 C 103.773438 146.722656 103.773438 146.710938 103.773438 146.710938 C 103.773438 146.695312 103.773438 146.683594 103.773438 146.671875 C 103.773438 146.660156 103.773438 146.644531 103.773438 146.632812 L 103.773438 146.625 C 103.773438 146.625 103.773438 146.621094 103.773438 146.617188 Z M 103.773438 146.617188 "/><path style=" stroke:none;fill-rule:nonzero;fill:#b77e68;fill-opacity:1;" d="M 72.03125 21.660156 C 70.796875 16.472656 68.503906 11.121094 64.875 7.078125 C 63.097656 5.097656 57.292969 0.0898438 54.148438 1.785156 C 49.636719 4.210938 54.628906 12.953125 56.945312 15.082031 C 63.15625 20.800781 63.75 21.660156 63.75 21.660156 "/><path style=" stroke:none;fill-rule:nonzero;fill:#f7aea9;fill-opacity:1;" d="M 69.757812 20.328125 C 68.941406 16.898438 67.425781 13.351562 65.023438 10.675781 C 63.84375 9.363281 60 6.050781 57.921875 7.171875 C 54.9375 8.78125 58.242188 14.566406 59.769531 15.976562 C 63.882812 19.761719 64.277344 20.328125 64.277344 20.328125 "/><path style=" stroke:none;fill-rule:nonzero;fill:#b77e68;fill-opacity:1;" d="M 27.867188 21.660156 C 29.101562 16.472656 31.394531 11.121094 35.023438 7.078125 C 36.800781 5.097656 42.605469 0.0898438 45.753906 1.785156 C 50.261719 4.210938 45.269531 12.953125 42.953125 15.082031 C 36.742188 20.804688 36.152344 21.660156 36.152344 21.660156 "/><path style=" stroke:none;fill-rule:nonzero;fill:#f7aea9;fill-opacity:1;" d="M 30.140625 20.328125 C 30.957031 16.898438 32.476562 13.351562 34.878906 10.675781 C 36.054688 9.363281 39.898438 6.050781 41.980469 7.171875 C 44.964844 8.78125 41.660156 14.566406 40.125 15.976562 C 36.015625 19.761719 35.625 20.328125 35.625 20.328125 "/><path style=" stroke:none;fill-rule:nonzero;fill:#b77e68;fill-opacity:1;" d="M 34.007812 25.851562 C 44.042969 29.546875 46.867188 46 45.441406 54.949219 L 52.015625 54.675781 C 50.589844 45.726562 53.414062 29.277344 63.449219 25.578125 C 72.15625 22.371094 82.628906 29.742188 86.34375 49.46875 L 90.460938 49.46875 C 90.417969 49.417969 90.371094 49.367188 90.328125 49.308594 C 90.257812 49.21875 90.1875 49.128906 90.121094 49.039062 C 90.066406 48.347656 89.992188 47.660156 89.902344 46.972656 C 89.007812 42.734375 87.460938 38.632812 85.328125 34.847656 C 84.875 34.046875 84.398438 33.261719 83.894531 32.492188 C 80.222656 26.867188 75.191406 22.070312 69.035156 18.726562 C 65.34375 16.722656 60.902344 15.070312 56.710938 14.355469 C 54.15625 13.921875 51.617188 13.683594 49.078125 13.644531 L 49.078125 13.636719 C 48.882812 13.636719 48.683594 13.636719 48.488281 13.640625 C 48.289062 13.636719 48.09375 13.636719 47.898438 13.636719 L 47.898438 13.644531 C 45.359375 13.683594 42.820312 13.921875 40.261719 14.355469 C 36.074219 15.070312 31.636719 16.722656 27.9375 18.726562 C 21.785156 22.070312 16.753906 26.867188 13.082031 32.492188 C 12.578125 33.261719 12.101562 34.046875 11.648438 34.847656 C 9.515625 38.632812 7.972656 42.734375 7.074219 46.972656 C 6.910156 47.75 6.769531 48.527344 6.648438 49.308594 C 6.535156 49.457031 6.414062 49.601562 6.289062 49.742188 L 11.113281 49.742188 C 14.828125 30.015625 25.300781 22.640625 34.007812 25.851562 Z M 34.007812 25.851562 "/><path style=" stroke:none;fill-rule:nonzero;fill:#f5b89a;fill-opacity:1;" d="M 96.949219 57.332031 C 96.90625 56.863281 96.699219 56.523438 96.269531 56.371094 C 95.984375 56.269531 95.710938 56.164062 95.449219 56.050781 C 96.113281 54.46875 96.328125 53.125 95.371094 52.789062 C 93.554688 52.144531 92.261719 51.328125 91.25 50.347656 C 90.964844 50.070312 90.707031 49.773438 90.460938 49.46875 L 86.34375 49.46875 C 82.628906 29.742188 72.15625 22.371094 63.449219 25.578125 C 53.414062 29.277344 50.589844 45.726562 52.015625 54.675781 L 45.441406 54.949219 C 46.867188 46 44.042969 29.546875 34.007812 25.851562 C 25.300781 22.640625 14.828125 30.015625 11.113281 49.742188 L 6.289062 49.742188 C 6.109375 49.949219 5.925781 50.152344 5.722656 50.347656 C 4.714844 51.328125 3.421875 52.144531 1.605469 52.789062 C 0.648438 53.125 0.859375 54.46875 1.527344 56.050781 C 1.265625 56.164062 0.992188 56.269531 0.703125 56.371094 C 0.167969 56.5625 -0.0195312 57.050781 0.0273438 57.714844 C 0.203125 60.414062 4.230469 66.035156 4.636719 66.683594 C 5.90625 68.730469 7.402344 70.640625 9.082031 72.378906 C 11.273438 74.652344 13.777344 76.640625 16.511719 78.285156 C 24.988281 83.375 35.910156 85.882812 45.832031 86.0625 C 46.699219 86.078125 47.585938 86.082031 48.488281 86.074219 C 49.386719 86.082031 50.273438 86.078125 51.140625 86.0625 C 61.0625 85.882812 71.988281 83.375 80.464844 78.285156 C 83.195312 76.640625 85.703125 74.652344 87.894531 72.378906 C 89.574219 70.640625 91.070312 68.730469 92.339844 66.683594 C 92.765625 66.003906 97.1875 59.835938 96.949219 57.332031 Z M 37.214844 39.679688 C 37.335938 39.71875 37.453125 39.765625 37.574219 39.808594 C 37.453125 39.765625 37.335938 39.71875 37.214844 39.679688 Z M 58.257812 39.878906 C 58.375 39.832031 58.492188 39.789062 58.613281 39.75 C 58.492188 39.789062 58.375 39.832031 58.257812 39.878906 Z M 58.257812 39.878906 "/><path style=" stroke:none;fill-rule:nonzero;fill:#ffffff;fill-opacity:1;" d="M 50.464844 65.027344 L 45.511719 65.027344 L 45.511719 61.792969 L 48.390625 59.277344 L 50.464844 61.34375 Z M 50.464844 65.027344 "/><path style=" stroke:none;fill-rule:nonzero;fill:#f6b4ca;fill-opacity:1;" d="M 49.257812 58.988281 C 49.230469 58.898438 49.203125 58.808594 49.171875 58.714844 C 49.144531 58.808594 49.113281 58.898438 49.085938 58.988281 Z M 49.257812 58.988281 "/><path style=" stroke:none;fill-rule:nonzero;fill:#2c231b;fill-opacity:1;" d="M 47.605469 59.347656 L 48.242188 59.277344 L 48.222656 59.839844 C 48.277344 59.746094 48.324219 59.652344 48.371094 59.558594 C 48.121094 59.03125 47.980469 58.457031 47.96875 57.867188 C 47.957031 58.382812 47.828125 58.886719 47.605469 59.347656 Z M 47.605469 59.347656 "/><path style=" stroke:none;fill-rule:nonzero;fill:#2c231b;fill-opacity:1;" d="M 48.78125 57.867188 C 48.789062 57.644531 48.582031 57.53125 48.375 57.535156 C 48.578125 57.539062 48.777344 57.648438 48.78125 57.867188 Z M 48.78125 57.867188 "/><path style=" stroke:none;fill-rule:nonzero;fill:#2c231b;fill-opacity:1;" d="M 43.722656 61.65625 C 41.261719 61.699219 39.515625 59.796875 39.476562 57.867188 C 39.464844 57.425781 38.648438 57.425781 38.660156 57.867188 C 38.710938 60.234375 40.8125 62.285156 43.722656 62.335938 C 43.875 62.339844 44.023438 62.335938 44.171875 62.324219 L 44.171875 61.628906 C 44.027344 61.644531 43.875 61.652344 43.722656 61.65625 Z M 43.722656 61.65625 "/><path style=" stroke:none;fill-rule:nonzero;fill:#2c231b;fill-opacity:1;" d="M 47.605469 59.347656 C 47.023438 60.542969 45.777344 61.457031 44.171875 61.628906 L 44.171875 62.324219 C 46.003906 62.207031 47.46875 61.175781 48.222656 59.835938 L 48.242188 59.277344 Z M 47.605469 59.347656 "/><path style=" stroke:none;fill-rule:nonzero;fill:#2c231b;fill-opacity:1;" d="M 57.273438 57.867188 C 57.230469 59.859375 55.492188 61.613281 53.027344 61.65625 C 52.839844 61.65625 52.660156 61.648438 52.480469 61.632812 L 52.480469 62.304688 C 52.660156 62.324219 52.84375 62.332031 53.027344 62.335938 C 55.9375 62.386719 58.039062 60.160156 58.089844 57.867188 C 58.101562 57.425781 57.285156 57.425781 57.273438 57.867188 Z M 57.273438 57.867188 "/><path style=" stroke:none;fill-rule:nonzero;fill:#2c231b;fill-opacity:1;" d="M 48.375 57.535156 C 48.167969 57.535156 47.960938 57.644531 47.96875 57.867188 C 47.972656 57.648438 48.175781 57.539062 48.375 57.535156 Z M 48.375 57.535156 "/><path style=" stroke:none;fill-rule:nonzero;fill:#2c231b;fill-opacity:1;" d="M 49.125 59.296875 C 48.914062 58.84375 48.792969 58.355469 48.78125 57.867188 C 48.769531 58.445312 48.625 59.023438 48.371094 59.558594 C 48.445312 59.714844 48.53125 59.867188 48.621094 60.011719 L 48.621094 59.296875 Z M 49.125 59.296875 "/><path style=" stroke:none;fill-rule:nonzero;fill:#2c231b;fill-opacity:1;" d="M 49.125 59.296875 L 48.621094 59.296875 L 48.621094 60.011719 C 49.386719 61.226562 50.765625 62.121094 52.480469 62.304688 L 52.480469 61.632812 C 50.90625 61.46875 49.6875 60.496094 49.125 59.296875 Z M 49.125 59.296875 "/><path style=" stroke:none;fill-rule:nonzero;fill:#2c231b;fill-opacity:1;" d="M 48.375 57.535156 C 48.175781 57.539062 47.972656 57.648438 47.96875 57.867188 C 47.980469 58.457031 48.121094 59.03125 48.371094 59.558594 C 48.625 59.023438 48.769531 58.445312 48.78125 57.867188 C 48.777344 57.648438 48.578125 57.539062 48.375 57.535156 Z M 48.375 57.535156 "/><path style=" stroke:none;fill-rule:nonzero;fill:#2c231b;fill-opacity:1;" d="M 47.976562 53.574219 C 47.976562 55.230469 47.976562 56.886719 47.976562 58.546875 C 47.976562 59.054688 48.765625 59.054688 48.765625 58.546875 C 48.765625 56.886719 48.765625 55.230469 48.765625 53.574219 C 48.765625 53.0625 47.976562 53.0625 47.976562 53.574219 Z M 47.976562 53.574219 "/><path style=" stroke:none;fill-rule:nonzero;fill:#7d4332;fill-opacity:1;" d="M 43.359375 51.375 C 43.359375 47.90625 53.414062 47.9375 53.414062 51.375 C 53.417969 53.382812 50.867188 56.570312 48.703125 56.644531 C 46.15625 56.738281 43.359375 53.671875 43.359375 51.375 Z M 43.359375 51.375 "/><path style=" stroke:none;fill-rule:nonzero;fill:#ffffff;fill-opacity:0.1;" d="M 51.804688 51.074219 C 51.804688 51.285156 51.722656 51.488281 51.566406 51.683594 C 51.40625 51.882812 51.183594 52.054688 50.890625 52.203125 C 50.597656 52.355469 50.257812 52.46875 49.875 52.550781 C 49.496094 52.632812 49.097656 52.671875 48.683594 52.671875 C 48.269531 52.671875 47.871094 52.632812 47.488281 52.550781 C 47.105469 52.46875 46.769531 52.355469 46.476562 52.203125 C 46.183594 52.054688 45.957031 51.882812 45.800781 51.683594 C 45.640625 51.488281 45.5625 51.285156 45.5625 51.074219 C 45.5625 50.863281 45.640625 50.660156 45.800781 50.460938 C 45.957031 50.265625 46.183594 50.09375 46.476562 49.945312 C 46.769531 49.792969 47.105469 49.679688 47.488281 49.597656 C 47.871094 49.515625 48.269531 49.476562 48.683594 49.476562 C 49.097656 49.476562 49.496094 49.515625 49.875 49.597656 C 50.257812 49.679688 50.597656 49.792969 50.890625 49.945312 C 51.183594 50.09375 51.40625 50.265625 51.566406 50.460938 C 51.722656 50.65625 51.804688 50.863281 51.804688 51.074219 Z M 51.804688 51.074219 "/><path style=" stroke:none;fill-rule:nonzero;fill:#fac9c7;fill-opacity:1;" d="M 27.808594 52.714844 C 27.808594 53.078125 27.773438 53.433594 27.695312 53.785156 C 27.621094 54.140625 27.511719 54.484375 27.367188 54.816406 C 27.21875 55.148438 27.039062 55.464844 26.828125 55.765625 C 26.617188 56.0625 26.375 56.339844 26.105469 56.59375 C 25.835938 56.851562 25.542969 57.078125 25.222656 57.277344 C 24.90625 57.476562 24.570312 57.644531 24.21875 57.785156 C 23.867188 57.921875 23.5 58.027344 23.128906 58.097656 C 22.753906 58.167969 22.375 58.203125 21.992188 58.203125 C 21.609375 58.203125 21.230469 58.167969 20.859375 58.097656 C 20.484375 58.027344 20.121094 57.921875 19.765625 57.785156 C 19.414062 57.644531 19.078125 57.476562 18.761719 57.277344 C 18.441406 57.078125 18.148438 56.851562 17.878906 56.59375 C 17.609375 56.339844 17.367188 56.0625 17.15625 55.765625 C 16.945312 55.464844 16.765625 55.148438 16.617188 54.816406 C 16.472656 54.484375 16.363281 54.140625 16.289062 53.785156 C 16.214844 53.433594 16.175781 53.078125 16.175781 52.714844 C 16.175781 52.355469 16.214844 52 16.289062 51.644531 C 16.363281 51.292969 16.472656 50.949219 16.617188 50.617188 C 16.765625 50.285156 16.945312 49.96875 17.15625 49.667969 C 17.367188 49.367188 17.609375 49.09375 17.878906 48.835938 C 18.148438 48.582031 18.441406 48.355469 18.761719 48.15625 C 19.078125 47.953125 19.414062 47.785156 19.765625 47.648438 C 20.121094 47.511719 20.484375 47.40625 20.859375 47.335938 C 21.230469 47.265625 21.609375 47.230469 21.992188 47.230469 C 22.375 47.230469 22.753906 47.265625 23.128906 47.335938 C 23.5 47.40625 23.867188 47.511719 24.21875 47.648438 C 24.570312 47.785156 24.90625 47.953125 25.222656 48.15625 C 25.542969 48.355469 25.835938 48.582031 26.105469 48.835938 C 26.375 49.09375 26.617188 49.367188 26.828125 49.667969 C 27.039062 49.96875 27.21875 50.285156 27.367188 50.617188 C 27.511719 50.949219 27.621094 51.292969 27.695312 51.644531 C 27.773438 52 27.808594 52.355469 27.808594 52.714844 Z M 27.808594 52.714844 "/><path style=" stroke:none;fill-rule:nonzero;fill:#fac9c7;fill-opacity:1;" d="M 81.390625 52.714844 C 81.390625 53.078125 81.351562 53.433594 81.277344 53.785156 C 81.203125 54.140625 81.09375 54.484375 80.945312 54.816406 C 80.800781 55.148438 80.621094 55.464844 80.410156 55.765625 C 80.199219 56.0625 79.957031 56.339844 79.6875 56.59375 C 79.417969 56.851562 79.121094 57.078125 78.804688 57.277344 C 78.488281 57.476562 78.152344 57.644531 77.800781 57.785156 C 77.445312 57.921875 77.082031 58.027344 76.707031 58.097656 C 76.332031 58.167969 75.953125 58.203125 75.574219 58.203125 C 75.191406 58.203125 74.8125 58.167969 74.4375 58.097656 C 74.0625 58.027344 73.699219 57.921875 73.347656 57.785156 C 72.992188 57.644531 72.660156 57.476562 72.339844 57.277344 C 72.023438 57.078125 71.730469 56.851562 71.460938 56.59375 C 71.191406 56.339844 70.949219 56.0625 70.738281 55.765625 C 70.523438 55.464844 70.34375 55.148438 70.199219 54.816406 C 70.050781 54.484375 69.941406 54.140625 69.867188 53.785156 C 69.792969 53.433594 69.757812 53.078125 69.757812 52.714844 C 69.757812 52.355469 69.792969 52 69.867188 51.644531 C 69.941406 51.292969 70.050781 50.949219 70.199219 50.617188 C 70.34375 50.285156 70.523438 49.96875 70.738281 49.667969 C 70.949219 49.367188 71.191406 49.09375 71.460938 48.835938 C 71.730469 48.582031 72.023438 48.355469 72.339844 48.15625 C 72.660156 47.953125 72.992188 47.785156 73.347656 47.648438 C 73.699219 47.511719 74.0625 47.40625 74.4375 47.335938 C 74.8125 47.265625 75.191406 47.230469 75.574219 47.230469 C 75.953125 47.230469 76.332031 47.265625 76.707031 47.335938 C 77.082031 47.40625 77.445312 47.511719 77.800781 47.648438 C 78.152344 47.785156 78.488281 47.953125 78.804688 48.15625 C 79.121094 48.355469 79.417969 48.582031 79.6875 48.835938 C 79.957031 49.09375 80.199219 49.367188 80.410156 49.667969 C 80.621094 49.96875 80.800781 50.285156 80.945312 50.617188 C 81.09375 50.949219 81.203125 51.292969 81.277344 51.644531 C 81.351562 52 81.390625 52.355469 81.390625 52.714844 Z M 81.390625 52.714844 "/><path style=" stroke:none;fill-rule:nonzero;fill:#231f20;fill-opacity:1;" d="M 36.3125 52.714844 C 36.3125 53.089844 36.242188 53.453125 36.097656 53.800781 C 35.953125 54.148438 35.746094 54.457031 35.480469 54.722656 C 35.214844 54.988281 34.90625 55.195312 34.558594 55.339844 C 34.210938 55.484375 33.847656 55.554688 33.472656 55.554688 C 33.097656 55.554688 32.734375 55.484375 32.386719 55.339844 C 32.039062 55.195312 31.730469 54.988281 31.464844 54.722656 C 31.199219 54.457031 30.992188 54.148438 30.847656 53.800781 C 30.703125 53.453125 30.632812 53.089844 30.632812 52.714844 C 30.632812 52.339844 30.703125 51.976562 30.847656 51.628906 C 30.992188 51.28125 31.199219 50.972656 31.464844 50.707031 C 31.730469 50.441406 32.039062 50.234375 32.386719 50.09375 C 32.734375 49.949219 33.097656 49.875 33.472656 49.875 C 33.847656 49.875 34.210938 49.949219 34.558594 50.09375 C 34.90625 50.234375 35.214844 50.441406 35.480469 50.707031 C 35.746094 50.972656 35.953125 51.28125 36.097656 51.628906 C 36.242188 51.976562 36.3125 52.339844 36.3125 52.714844 Z M 36.3125 52.714844 "/><path style=" stroke:none;fill-rule:nonzero;fill:#231f20;fill-opacity:1;" d="M 66.933594 52.714844 C 66.933594 53.089844 66.859375 53.453125 66.714844 53.800781 C 66.574219 54.148438 66.367188 54.457031 66.101562 54.722656 C 65.835938 54.988281 65.527344 55.195312 65.179688 55.335938 C 64.832031 55.480469 64.46875 55.554688 64.09375 55.554688 C 63.714844 55.554688 63.355469 55.480469 63.007812 55.335938 C 62.660156 55.195312 62.351562 54.988281 62.085938 54.722656 C 61.820312 54.457031 61.613281 54.148438 61.46875 53.800781 C 61.324219 53.453125 61.253906 53.089844 61.253906 52.714844 C 61.253906 52.339844 61.324219 51.976562 61.46875 51.628906 C 61.613281 51.28125 61.820312 50.972656 62.085938 50.707031 C 62.351562 50.441406 62.660156 50.238281 63.007812 50.09375 C 63.355469 49.949219 63.714844 49.875 64.09375 49.875 C 64.46875 49.875 64.832031 49.949219 65.179688 50.09375 C 65.527344 50.238281 65.835938 50.441406 66.101562 50.707031 C 66.367188 50.972656 66.574219 51.28125 66.714844 51.628906 C 66.859375 51.976562 66.933594 52.339844 66.933594 52.714844 Z M 66.933594 52.714844 "/><g clip-rule="nonzero" clip-path="url(#2e91f6b490)"><path style=" stroke:none;fill-rule:nonzero;fill:#cb9860;fill-opacity:1;" d="M 2.71875 77.085938 L 183.492188 77.085938 L 183.492188 192.382812 L 2.71875 192.382812 Z M 2.71875 77.085938 "/></g><path style=" stroke:none;fill-rule:nonzero;fill:#231f20;fill-opacity:1;" d="M 90.5 80.402344 C 90.246094 83.574219 88.105469 86.527344 84.621094 85.863281 C 84.015625 85.75 82.679688 84.761719 82.21875 84.820312 C 81.460938 84.929688 81.691406 85.4375 81.015625 85.9375 C 79.121094 87.335938 76.546875 86.90625 75.199219 85.027344 C 64.523438 89.527344 68.035156 74.988281 74.546875 72.273438 C 77.792969 70.925781 81.933594 70.90625 85.246094 72.050781 C 86.855469 72.605469 88.4375 73.503906 89.421875 74.941406 C 90.273438 76.1875 90.667969 78.351562 90.5 80.402344 Z M 90.5 80.402344 "/><path style=" stroke:none;fill-rule:nonzero;fill:#b77e68;fill-opacity:1;" d="M 90.933594 81.269531 C 90.679688 84.441406 88.535156 87.390625 85.054688 86.730469 C 84.449219 86.617188 83.113281 85.625 82.652344 85.6875 C 81.894531 85.792969 82.125 86.304688 81.449219 86.804688 C 79.554688 88.203125 76.976562 87.769531 75.632812 85.894531 C 64.953125 90.394531 68.46875 75.851562 74.976562 73.140625 C 78.226562 71.789062 82.367188 71.769531 85.675781 72.917969 C 87.289062 73.472656 88.871094 74.367188 89.855469 75.804688 C 90.707031 77.054688 91.097656 79.214844 90.933594 81.269531 Z M 90.933594 81.269531 "/><path style=" stroke:none;fill-rule:nonzero;fill:#231f20;fill-opacity:1;" d="M 8.617188 80.402344 C 8.871094 83.574219 11.011719 86.527344 14.496094 85.863281 C 15.097656 85.75 16.433594 84.761719 16.894531 84.820312 C 17.652344 84.929688 17.421875 85.4375 18.097656 85.9375 C 19.996094 87.335938 22.570312 86.90625 23.917969 85.027344 C 34.59375 89.527344 31.082031 74.988281 24.570312 72.273438 C 21.324219 70.925781 17.183594 70.90625 13.871094 72.050781 C 12.261719 72.605469 10.675781 73.503906 9.695312 74.941406 C 8.84375 76.1875 8.449219 78.351562 8.617188 80.402344 Z M 8.617188 80.402344 "/><path style=" stroke:none;fill-rule:nonzero;fill:#b77e68;fill-opacity:1;" d="M 8.183594 81.269531 C 8.4375 84.441406 10.582031 87.390625 14.0625 86.730469 C 14.664062 86.617188 16.003906 85.625 16.464844 85.6875 C 17.222656 85.792969 16.992188 86.304688 17.667969 86.804688 C 19.5625 88.203125 22.136719 87.769531 23.484375 85.894531 C 34.160156 90.394531 30.648438 75.851562 24.136719 73.140625 C 20.890625 71.789062 16.75 71.769531 13.441406 72.917969 C 11.828125 73.472656 10.246094 74.367188 9.261719 75.804688 C 8.410156 77.054688 8.015625 79.214844 8.183594 81.269531 Z M 8.183594 81.269531 "/></g></svg>